<svg xmlns="http://www.w3.org/2000/svg" xmlns:xlink="http://www.w3.org/1999/xlink" width="250" zoomAndPan="magnify" viewBox="0 0 187.5 149.999998" height="200" preserveAspectRatio="xMidYMid meet" version="1.0"><defs><g/><clipPath id="a7d0ee8525"><path d="M 116 106 L 144 106 L 144 132.574219 L 116 132.574219 Z M 116 106 " clip-rule="nonzero"/></clipPath><clipPath id="8037115cb6"><path d="M 19 17.378906 L 52 17.378906 L 52 50 L 19 50 Z M 19 17.378906 " clip-rule="nonzero"/></clipPath><clipPath id="e4c9aae57b"><path d="M 59 17.378906 L 77 17.378906 L 77 35 L 59 35 Z M 59 17.378906 " clip-rule="nonzero"/></clipPath></defs><path fill="#0ecdad" d="M 132.53125 47.429688 C 122.355469 37.25 105.855469 37.25 95.679688 47.429688 L 93.289062 49.816406 L 90.898438 47.429688 C 80.722656 37.25 64.222656 37.25 54.042969 47.429688 C 43.867188 57.605469 43.867188 74.105469 54.042969 84.28125 L 56.4375 86.671875 L 93.289062 123.523438 L 132.53125 84.28125 C 142.710938 74.105469 142.710938 57.605469 132.53125 47.429688 " fill-opacity="1" fill-rule="nonzero"/><g clip-path="url(#a7d0ee8525)"><path fill="#0ecdad" d="M 143.042969 119.351562 C 135.714844 119.351562 129.773438 113.410156 129.773438 106.085938 C 129.773438 113.410156 123.832031 119.351562 116.507812 119.351562 C 123.832031 119.351562 129.773438 125.292969 129.773438 132.621094 C 129.773438 125.292969 135.714844 119.351562 143.042969 119.351562 " fill-opacity="1" fill-rule="nonzero"/></g><g clip-path="url(#8037115cb6)"><path fill="#0ecdad" d="M 51.105469 33.363281 C 42.28125 33.363281 35.125 26.207031 35.125 17.378906 C 35.125 26.207031 27.96875 33.363281 19.144531 33.363281 C 27.96875 33.363281 35.125 40.515625 35.125 49.34375 C 35.125 40.515625 42.28125 33.363281 51.105469 33.363281 " fill-opacity="1" fill-rule="nonzero"/></g><path fill="#0ecdad" d="M 174.957031 100.96875 C 165.832031 100.96875 158.433594 93.574219 158.433594 84.445312 C 158.433594 93.574219 151.035156 100.96875 141.910156 100.96875 C 151.035156 100.96875 158.433594 108.367188 158.433594 117.492188 C 158.433594 108.367188 165.832031 100.96875 174.957031 100.96875 " fill-opacity="1" fill-rule="nonzero"/><path fill="#0ecdad" d="M 30.300781 66.644531 C 22.972656 66.644531 17.035156 60.703125 17.035156 53.375 C 17.035156 60.703125 11.09375 66.644531 3.765625 66.644531 C 11.09375 66.644531 17.035156 72.582031 17.035156 79.910156 C 17.035156 72.582031 22.972656 66.644531 30.300781 66.644531 " fill-opacity="1" fill-rule="nonzero"/><g clip-path="url(#e4c9aae57b)"><path fill="#0ecdad" d="M 76.398438 26.050781 C 71.609375 26.050781 67.726562 22.167969 67.726562 17.378906 C 67.726562 22.167969 63.847656 26.050781 59.058594 26.050781 C 63.847656 26.050781 67.726562 29.933594 67.726562 34.71875 C 67.726562 29.933594 71.609375 26.050781 76.398438 26.050781 " fill-opacity="1" fill-rule="nonzero"/></g><path fill="#0ecdad" d="M 75.960938 106.195312 C 45.542969 113.148438 21.921875 113.011719 19.371094 104.890625 C 17.304688 98.324219 29.535156 88.15625 49.585938 78.320312 C 49.125 77.472656 48.710938 76.605469 48.347656 75.726562 C 18.886719 88.566406 0.015625 102.132812 2.546875 110.179688 C 5.535156 119.695312 37.503906 118.417969 77.871094 108.105469 L 75.960938 106.195312 " fill-opacity="1" fill-rule="nonzero"/><path fill="#0ecdad" d="M 184.03125 53.144531 C 181.714844 45.773438 162.019531 44.878906 134.5 49.636719 C 135.289062 50.625 135.996094 51.65625 136.617188 52.722656 C 153.699219 51.035156 165.449219 52.839844 167.210938 58.429688 C 169.585938 65.992188 153.027344 78.320312 127.386719 89.425781 L 123.023438 93.792969 C 160.972656 79.324219 186.972656 62.5 184.03125 53.144531 " fill-opacity="1" fill-rule="nonzero"/><path stroke-linecap="butt" transform="matrix(0.872694, -0.0590945, 0.0590945, 0.872694, 9.126923, 57.918989)" fill="none" stroke-linejoin="miter" d="M 29.1061 22.998388 L 35.797772 22.99943 C 36.169402 22.997739 36.466772 22.704549 36.465081 22.33292 L 36.46479 10.372808 C 36.467855 9.997025 36.761374 9.694622 37.141613 9.69799 C 37.513242 9.696298 37.810585 9.998426 37.812277 10.370056 L 37.808947 22.383635 C 37.812147 22.732986 38.134183 23.000978 38.478776 23.001931 L 45.197485 23.000329 C 45.55099 23.001886 45.873585 22.732785 45.874841 22.383736 L 45.873715 10.369854 C 45.872023 9.998225 46.169997 9.696124 46.541627 9.694433 C 46.921865 9.6978 47.219209 9.999928 47.216445 10.371256 L 47.216736 22.331368 C 47.218427 22.702997 47.53835 23.002178 47.914436 23.000788 L 54.606108 23.001831 C 54.977738 23.000139 55.275108 22.70695 55.273718 22.330865 L 55.273064 2.179498 C 55.271976 1.798957 54.951751 1.504232 54.580424 1.501468 L 43.184137 1.50413 C 42.808354 1.501064 42.513327 1.825744 42.514416 2.206285 L 42.512302 5.939195 C 42.513993 6.310824 42.220777 6.608771 41.840538 6.605403 C 41.464453 6.606793 41.171264 6.309423 41.169572 5.937793 L 41.16904 2.177848 C 41.167952 1.797307 40.847727 1.502582 40.476098 1.504274 L 29.080113 1.50248 C 28.699573 1.503568 28.402202 1.796758 28.40329 2.177298 L 28.403944 22.328666 C 28.405334 22.704751 28.730015 22.999777 29.1061 22.998388 Z M 57.309692 23.001385 L 77.461059 23.000731 C 77.832689 22.999039 78.130059 22.70585 78.128669 22.329765 L 78.129841 17.222634 C 78.128451 16.846549 77.808226 16.551824 77.432141 16.553214 L 65.342513 16.549211 C 64.961973 16.550299 64.668482 16.257384 64.667092 15.881299 C 64.666004 15.500759 64.963374 15.207569 65.343915 15.206481 L 76.386394 15.206718 C 76.758024 15.205026 77.055394 14.911837 77.054004 14.535752 L 77.054615 9.965713 C 77.053225 9.589628 76.733 9.294903 76.356915 9.296293 L 65.345625 9.298168 C 64.965386 9.294801 64.66744 9.001584 64.66605 8.625499 C 64.669417 8.24526 64.962332 7.951769 65.342873 7.950681 L 77.459536 7.952039 C 77.835621 7.950649 78.128536 7.657158 78.127146 7.281073 L 78.128016 2.178398 C 78.131383 1.798159 77.833738 1.500487 77.462109 1.502178 L 57.279552 1.50072 C 56.899011 1.501808 56.605795 1.799755 56.606883 2.180296 L 56.607537 22.331663 C 56.604773 22.702991 56.933909 22.998319 57.309692 23.001385 Z M 80.164643 23.000285 L 86.856316 23.001328 C 87.227945 22.999636 87.525316 22.706447 87.523926 22.330362 L 87.523696 18.565961 C 87.526762 18.190178 87.819677 17.896687 88.200217 17.895599 C 88.576302 17.894209 88.872137 18.218615 88.869373 18.589942 L 88.871111 22.332065 C 88.868347 22.703393 89.193028 22.998419 89.564356 23.001184 L 96.25633 22.997771 C 96.636569 23.001138 96.934241 22.703493 96.93255 22.331864 L 96.933117 6.987892 C 96.933463 3.809897 94.623524 1.500483 91.449682 1.504894 L 84.946052 1.503157 C 81.776969 1.503414 79.4631 3.813052 79.463055 6.986591 L 79.462488 22.330563 C 79.463878 22.706648 79.793014 23.001977 80.164643 23.000285 Z M 88.20279 11.445738 C 87.822249 11.446826 87.524303 11.15361 87.523215 10.773069 L 87.525457 8.624701 C 87.524369 8.244161 87.821739 7.950971 88.20228 7.949883 C 88.573607 7.952647 88.871554 8.245864 88.868187 8.626103 L 88.870702 10.770316 C 88.87179 11.150857 88.574118 11.448502 88.20279 11.445738 Z M 103.749185 22.999353 L 115.06021 22.999869 C 115.413715 23.001427 115.735476 22.678556 115.734086 22.302471 L 115.758298 10.773723 C 115.761364 10.397939 115.436683 10.102912 115.056143 10.104001 L 108.368926 10.10326 C 108.019876 10.102004 107.698116 10.424874 107.699807 10.796504 L 107.669796 15.073606 C 107.671186 15.449691 107.351235 15.745828 107.002186 15.744572 C 106.621645 15.74566 106.328456 15.44829 106.326764 15.076661 L 106.328496 9.432438 C 106.327408 9.051897 106.620323 8.758406 107.000863 8.757318 L 115.057846 8.756815 C 115.438085 8.760183 115.733112 8.435502 115.735876 8.064174 L 115.736078 2.17814 C 115.734989 1.797599 115.437043 1.504382 115.056804 1.501015 L 103.750234 1.5008 C 100.58115 1.501057 98.262826 3.810393 98.26248 6.988388 L 98.265751 17.516355 C 98.265706 20.689895 100.580101 22.99961 103.749185 22.999353 Z M 117.794984 23.001535 L 124.486958 22.998123 C 124.858286 23.000887 125.155958 22.703242 125.154266 22.331612 L 125.154036 18.567211 C 125.157102 18.191428 125.450017 17.897937 125.830557 17.896849 C 126.206642 17.895459 126.498022 18.219563 126.499713 18.591193 L 126.501753 22.32886 C 126.498688 22.704643 126.823368 22.99967 127.194998 22.997978 L 133.88667 22.999021 C 134.267211 22.997933 134.560126 22.704442 134.56289 22.333114 L 134.563457 6.989142 C 134.563803 3.811147 132.253864 1.501734 129.080324 1.501689 L 122.576393 1.504407 C 119.407309 1.504664 117.093741 3.809846 117.093395 6.987841 L 117.092828 22.331814 C 117.09452 22.703443 117.4192 22.99847 117.794984 23.001535 Z M 125.83313 11.446988 C 125.45259 11.448077 125.154945 11.150404 125.153856 10.769864 L 125.155797 8.625952 C 125.154709 8.245411 125.452079 7.952222 125.83262 7.951133 C 126.204249 7.949442 126.501894 8.247114 126.498527 8.627353 L 126.501042 10.771567 C 126.50213 11.152108 126.204458 11.449752 125.83313 11.446988 Z M 136.59471 22.998877 L 143.286382 22.99992 C 143.662467 22.99853 143.955382 22.705039 143.958448 22.329255 L 143.957855 10.373599 C 143.956465 9.997514 144.249984 9.695112 144.630524 9.694024 C 145.006308 9.697089 145.299195 9.998916 145.300887 10.370545 L 145.299368 22.357391 C 145.303705 22.756056 145.596059 22.999657 145.998878 23.000077 L 160.751988 23.000919 C 161.132529 22.999831 161.425444 22.70634 161.424054 22.330255 L 161.427856 2.179189 C 161.426768 1.798648 161.129123 1.500976 160.748582 1.502064 L 154.034329 1.503969 C 153.658546 1.500903 153.36533 1.798849 153.361962 2.179088 L 153.36325 14.322787 C 153.364941 14.694417 153.067269 14.992062 152.68703 14.988694 C 152.315401 14.990386 152.017756 14.692713 152.02052 14.321386 L 152.021043 2.150953 C 152.018818 1.721098 151.724653 1.504231 151.317379 1.503509 L 136.568724 1.502969 C 136.188183 1.504058 135.895268 1.797549 135.896356 2.178089 L 135.892554 22.329155 C 135.893944 22.70524 136.22308 23.000568 136.59471 22.998877 Z M 136.59471 22.998877 " stroke="#0ecdad" stroke-width="4.669045" stroke-opacity="1" stroke-miterlimit="4"/><path stroke-linecap="butt" transform="matrix(0.872694, -0.0590945, 0.0590945, 0.872694, 9.126923, 57.918989)" fill="none" stroke-linejoin="miter" d="M 32.452725 48.998287 L 43.848709 49.000081 C 44.224794 48.998691 44.544443 48.70701 44.543053 48.330925 L 44.542543 44.83507 C 44.545608 44.459287 44.838523 44.165796 45.214608 44.164406 C 45.595149 44.163318 45.888338 44.460688 45.89003 44.832318 L 45.887593 48.305593 C 45.889285 48.677222 46.185119 49.001628 46.556749 48.999937 L 57.952733 49.00173 C 58.328818 49.00034 58.648768 48.704204 58.647077 48.332575 L 58.646725 28.176752 C 58.650092 27.796513 58.352146 27.503296 57.980516 27.504988 L 51.288844 27.503945 C 50.91306 27.500879 50.59311 27.797016 50.594198 28.177556 L 50.594651 40.267486 C 50.591585 40.643269 50.29867 40.93676 49.918129 40.937848 C 49.542044 40.939238 49.248855 40.641867 49.247163 40.270238 L 49.246479 28.117628 C 49.247433 27.773034 48.9257 27.500587 48.571893 27.503486 L 41.853486 27.500633 C 41.508591 27.504135 41.185995 27.773235 41.185041 28.117829 L 41.185725 40.270439 C 41.187417 40.642069 40.889745 40.939714 40.518417 40.93695 C 40.137876 40.938038 39.840232 40.640366 39.842996 40.269038 L 39.842543 28.179109 C 39.841455 27.798568 39.54381 27.500896 39.17218 27.502587 L 32.480508 27.501545 C 32.104423 27.502934 31.780017 27.798769 31.776649 28.179008 L 31.777303 48.330375 C 31.778693 48.70646 32.072184 48.999375 32.452725 48.998287 Z M 60.683353 48.998639 L 67.375025 48.999682 C 67.746655 48.99799 68.044025 48.704801 68.042635 48.328716 L 68.042405 44.564315 C 68.045169 44.192987 68.338386 43.895041 68.718625 43.898408 C 69.09471 43.897018 69.386391 44.216667 69.38778 44.592752 L 69.389821 48.330419 C 69.386755 48.706202 69.711435 49.001229 70.083065 48.999537 L 76.774737 49.00058 C 77.155278 48.999492 77.448193 48.706001 77.451259 48.330218 L 77.451826 32.986246 C 77.45187 29.812706 75.141931 27.503293 71.963936 27.502947 L 65.464762 27.501511 C 62.295678 27.501768 59.981809 29.811405 59.981764 32.984945 L 59.981197 48.328917 C 59.982587 48.705002 60.307268 49.000029 60.683353 48.998639 Z M 68.716742 37.448246 C 68.336201 37.449334 68.043012 37.151964 68.041924 36.771423 L 68.043864 34.627511 C 68.042776 34.24697 68.340448 33.949325 68.720687 33.952693 C 69.092317 33.951001 69.389962 34.248673 69.386594 34.628912 L 69.389109 36.773126 C 69.385742 37.153365 69.092827 37.446856 68.716742 37.448246 Z M 79.456043 48.998626 L 94.235888 49.001278 C 94.611973 48.999888 94.904888 48.706397 94.907953 48.330613 L 94.905812 42.413087 C 94.908576 42.04176 94.610931 41.744088 94.239301 41.745779 L 87.547629 41.744736 C 87.167088 41.745825 86.842408 41.450798 86.845473 41.075014 L 86.844051 28.206181 C 86.842963 27.82564 86.551584 27.501536 86.175499 27.502926 L 79.483826 27.501883 C 79.112197 27.503575 78.783335 27.799108 78.779968 28.179347 L 78.780622 48.330714 C 78.782011 48.706799 79.075502 48.999714 79.456043 48.998626 Z M 96.917193 48.999323 L 111.697038 49.001975 C 112.068667 49.000283 112.36634 48.702638 112.364648 48.331009 L 112.366962 42.413785 C 112.365572 42.0377 112.072081 41.744785 111.695996 41.746175 L 105.004323 41.745132 C 104.623783 41.74622 104.303558 41.451495 104.302168 41.07541 L 104.300746 28.206577 C 104.304113 27.826338 104.008279 27.501932 103.632194 27.503322 L 96.940521 27.502279 C 96.568892 27.50397 96.24003 27.799503 96.241118 28.180044 L 96.241772 48.331411 C 96.239008 48.702739 96.536653 49.000411 96.917193 48.999323 Z M 114.400622 49.001529 L 134.551989 49.000875 C 134.928074 48.999485 135.220989 48.705994 135.224055 48.330211 L 135.221072 43.218323 C 135.223836 42.846995 134.903612 42.55227 134.527527 42.55366 L 122.437899 42.549657 C 122.057358 42.550745 121.759412 42.257529 121.762477 41.881745 C 121.761389 41.501205 122.05876 41.208015 122.4393 41.206927 L 133.477324 41.206862 C 133.853409 41.205472 134.146324 40.911981 134.144934 40.535896 L 134.145545 35.965857 C 134.148611 35.590074 133.82393 35.295047 133.452301 35.296739 L 122.436857 35.293857 C 122.056316 35.294945 121.762825 35.00203 121.761435 34.625945 C 121.760347 34.245404 122.057718 33.952215 122.438258 33.951127 L 134.554922 33.952485 C 134.926551 33.950793 135.223921 33.657604 135.222531 33.281519 L 135.223401 28.178844 C 135.222313 27.798303 134.929124 27.500933 134.553039 27.502322 L 114.374937 27.501166 C 113.994397 27.502254 113.70118 27.800201 113.697813 28.18044 L 113.698467 48.331807 C 113.700158 48.703436 114.029294 48.998765 114.400622 49.001529 Z M 137.233295 48.998921 L 143.951702 49.001774 C 144.323331 49.000082 144.618056 48.679857 144.621122 48.304074 L 144.617289 42.014919 C 144.620354 41.639135 144.913269 41.345644 145.29381 41.344556 L 149.322301 41.344305 C 149.698386 41.342915 149.991575 41.640285 149.993267 42.011915 L 149.990533 48.331958 C 149.992224 48.703587 150.285413 49.000958 150.665954 48.999869 L 157.384662 48.998267 C 157.760446 49.001333 158.055473 48.676652 158.053781 48.305023 L 158.055659 41.66712 C 158.055832 40.078122 156.898484 38.925492 155.309486 38.925319 L 155.076887 38.922997 C 154.696346 38.924085 154.398701 38.626413 154.401465 38.255085 C 154.400377 37.874545 154.693594 37.576598 155.073833 37.579966 L 155.311189 37.578134 C 156.900187 37.578307 158.052515 36.425414 158.052688 34.836417 L 158.055469 31.886867 C 158.052168 29.357657 156.203687 27.504719 153.679234 27.503866 L 137.234043 27.504824 C 136.853804 27.501456 136.556132 27.799101 136.55722 28.179642 L 136.557873 48.331009 C 136.554808 48.706792 136.852754 49.000009 137.233295 48.998921 Z M 145.296102 35.163241 C 144.915562 35.16433 144.617615 34.871113 144.620982 34.490874 C 144.619593 34.114789 144.912507 33.821298 145.293048 33.82021 L 149.321539 33.819958 C 149.697624 33.818569 149.990814 34.115939 149.992505 34.487568 C 149.993593 34.868109 149.695921 35.165754 149.324594 35.16299 Z M 145.296102 35.163241 " stroke="#0ecdad" stroke-width="4.669045" stroke-opacity="1" stroke-miterlimit="4"/><g fill="#ffffff" fill-opacity="1"><g transform="translate(34.689718, 76.352)"><g><path d="M 1.195312 -0.0820312 L 7.035156 -0.476562 C 7.363281 -0.5 7.605469 -0.773438 7.582031 -1.101562 L 6.875 -11.539062 C 6.851562 -11.867188 7.09375 -12.140625 7.421875 -12.164062 C 7.75 -12.183594 8.023438 -11.945312 8.046875 -11.617188 L 8.757812 -1.136719 C 8.777344 -0.828125 9.074219 -0.613281 9.378906 -0.636719 L 15.242188 -1.03125 C 15.546875 -1.054688 15.8125 -1.304688 15.792969 -1.609375 L 15.082031 -12.09375 C 15.058594 -12.421875 15.300781 -12.695312 15.628906 -12.71875 C 15.957031 -12.742188 16.230469 -12.5 16.253906 -12.171875 L 16.960938 -1.738281 C 16.984375 -1.410156 17.28125 -1.171875 17.609375 -1.191406 L 23.449219 -1.585938 C 23.777344 -1.609375 24.019531 -1.886719 23.996094 -2.214844 L 22.804688 -19.800781 C 22.78125 -20.128906 22.484375 -20.367188 22.15625 -20.347656 L 12.214844 -19.671875 C 11.882812 -19.648438 11.644531 -19.351562 11.667969 -19.023438 L 11.890625 -15.761719 C 11.910156 -15.433594 11.671875 -15.160156 11.34375 -15.136719 C 11.015625 -15.117188 10.738281 -15.355469 10.714844 -15.683594 L 10.492188 -18.96875 C 10.472656 -19.296875 10.171875 -19.535156 9.84375 -19.511719 L -0.0976562 -18.839844 C -0.425781 -18.816406 -0.667969 -18.542969 -0.644531 -18.214844 L 0.546875 -0.625 C 0.570312 -0.296875 0.867188 -0.0585938 1.195312 -0.0820312 Z M 1.195312 -0.0820312 "/></g></g></g><g fill="#ffffff" fill-opacity="1"><g transform="translate(59.301655, 74.685401)"><g><path d="M 1.195312 -0.0820312 L 18.78125 -1.273438 C 19.109375 -1.292969 19.351562 -1.570312 19.328125 -1.898438 L 19.027344 -6.351562 C 19.003906 -6.679688 18.707031 -6.921875 18.378906 -6.898438 L 7.824219 -6.183594 C 7.496094 -6.160156 7.222656 -6.402344 7.199219 -6.730469 C 7.179688 -7.058594 7.417969 -7.332031 7.746094 -7.355469 L 17.382812 -8.007812 C 17.710938 -8.03125 17.953125 -8.304688 17.929688 -8.632812 L 17.660156 -12.621094 C 17.640625 -12.949219 17.339844 -13.1875 17.011719 -13.164062 L 7.398438 -12.515625 C 7.070312 -12.492188 6.792969 -12.734375 6.773438 -13.0625 C 6.75 -13.390625 6.988281 -13.664062 7.316406 -13.6875 L 17.894531 -14.402344 C 18.222656 -14.425781 18.460938 -14.699219 18.441406 -15.03125 L 18.136719 -19.484375 C 18.117188 -19.8125 17.839844 -20.054688 17.511719 -20.03125 L -0.0976562 -18.839844 C -0.425781 -18.816406 -0.667969 -18.542969 -0.644531 -18.214844 L 0.546875 -0.625 C 0.570312 -0.296875 0.867188 -0.0585938 1.195312 -0.0820312 Z M 1.195312 -0.0820312 "/></g></g></g><g fill="#ffffff" fill-opacity="1"><g transform="translate(79.249042, 73.334662)"><g><path d="M 1.195312 -0.0820312 L 7.035156 -0.476562 C 7.363281 -0.5 7.605469 -0.773438 7.582031 -1.101562 L 7.359375 -4.386719 C 7.335938 -4.714844 7.578125 -4.988281 7.90625 -5.011719 C 8.234375 -5.035156 8.511719 -4.769531 8.53125 -4.441406 L 8.753906 -1.183594 C 8.777344 -0.851562 9.074219 -0.613281 9.402344 -0.636719 L 15.242188 -1.03125 C 15.570312 -1.054688 15.8125 -1.328125 15.789062 -1.65625 L 14.882812 -15.046875 C 14.695312 -17.816406 12.542969 -19.695312 9.773438 -19.507812 L 4.097656 -19.125 C 1.332031 -18.9375 -0.546875 -16.78125 -0.359375 -14.015625 L 0.546875 -0.625 C 0.570312 -0.296875 0.867188 -0.0585938 1.195312 -0.0820312 Z M 7.523438 -10.640625 C 7.195312 -10.617188 6.921875 -10.855469 6.898438 -11.183594 L 6.773438 -13.0625 C 6.75 -13.390625 6.988281 -13.664062 7.316406 -13.6875 C 7.644531 -13.710938 7.921875 -13.46875 7.945312 -13.140625 L 8.070312 -11.265625 C 8.09375 -10.9375 7.851562 -10.660156 7.523438 -10.640625 Z M 7.523438 -10.640625 "/></g></g></g><g fill="#ffffff" fill-opacity="1"><g transform="translate(95.656996, 72.223596)"><g><path d="M 5.371094 -0.363281 L 15.242188 -1.03125 C 15.546875 -1.054688 15.808594 -1.351562 15.785156 -1.679688 L 15.128906 -11.742188 C 15.105469 -12.070312 14.808594 -12.308594 14.480469 -12.289062 L 8.640625 -11.890625 C 8.335938 -11.871094 8.074219 -11.570312 8.097656 -11.242188 L 8.324219 -7.511719 C 8.347656 -7.183594 8.082031 -6.90625 7.777344 -6.886719 C 7.449219 -6.863281 7.175781 -7.105469 7.152344 -7.433594 L 6.820312 -12.359375 C 6.796875 -12.6875 7.039062 -12.960938 7.367188 -12.984375 L 14.402344 -13.460938 C 14.730469 -13.484375 14.96875 -13.78125 14.945312 -14.109375 L 14.597656 -19.246094 C 14.574219 -19.574219 14.300781 -19.8125 13.972656 -19.792969 L 4.097656 -19.125 C 1.332031 -18.9375 -0.546875 -16.78125 -0.359375 -14.015625 L 0.261719 -4.824219 C 0.449219 -2.054688 2.601562 -0.175781 5.371094 -0.363281 Z M 5.371094 -0.363281 "/></g></g></g><g fill="#ffffff" fill-opacity="1"><g transform="translate(112.088386, 71.110943)"><g><path d="M 1.195312 -0.0820312 L 7.035156 -0.476562 C 7.363281 -0.5 7.605469 -0.773438 7.582031 -1.101562 L 7.359375 -4.386719 C 7.335938 -4.714844 7.578125 -4.988281 7.90625 -5.011719 C 8.234375 -5.035156 8.511719 -4.769531 8.53125 -4.441406 L 8.753906 -1.183594 C 8.777344 -0.851562 9.074219 -0.613281 9.402344 -0.636719 L 15.242188 -1.03125 C 15.570312 -1.054688 15.8125 -1.328125 15.789062 -1.65625 L 14.882812 -15.046875 C 14.695312 -17.816406 12.542969 -19.695312 9.773438 -19.507812 L 4.097656 -19.125 C 1.332031 -18.9375 -0.546875 -16.78125 -0.359375 -14.015625 L 0.546875 -0.625 C 0.570312 -0.296875 0.867188 -0.0585938 1.195312 -0.0820312 Z M 7.523438 -10.640625 C 7.195312 -10.617188 6.921875 -10.855469 6.898438 -11.183594 L 6.773438 -13.0625 C 6.75 -13.390625 6.988281 -13.664062 7.316406 -13.6875 C 7.644531 -13.710938 7.921875 -13.46875 7.945312 -13.140625 L 8.070312 -11.265625 C 8.09375 -10.9375 7.851562 -10.660156 7.523438 -10.640625 Z M 7.523438 -10.640625 "/></g></g></g><g fill="#ffffff" fill-opacity="1"><g transform="translate(128.496339, 69.999877)"><g><path d="M 1.195312 -0.0820312 L 7.035156 -0.476562 C 7.363281 -0.5 7.605469 -0.773438 7.582031 -1.101562 L 6.875 -11.539062 C 6.851562 -11.867188 7.09375 -12.140625 7.421875 -12.164062 C 7.75 -12.183594 8.023438 -11.945312 8.046875 -11.617188 L 8.753906 -1.160156 C 8.777344 -0.804688 9.050781 -0.613281 9.402344 -0.636719 L 22.277344 -1.507812 C 22.605469 -1.53125 22.84375 -1.804688 22.824219 -2.132812 L 21.632812 -19.722656 C 21.609375 -20.050781 21.335938 -20.289062 21.007812 -20.269531 L 15.144531 -19.871094 C 14.816406 -19.847656 14.574219 -19.574219 14.597656 -19.246094 L 15.316406 -8.644531 C 15.335938 -8.316406 15.097656 -8.042969 14.769531 -8.019531 C 14.441406 -7.996094 14.164062 -8.238281 14.144531 -8.566406 L 13.421875 -19.1875 C 13.398438 -19.5625 13.128906 -19.734375 12.777344 -19.710938 L -0.0976562 -18.839844 C -0.425781 -18.816406 -0.667969 -18.542969 -0.644531 -18.214844 L 0.546875 -0.625 C 0.570312 -0.296875 0.867188 -0.0585938 1.195312 -0.0820312 Z M 1.195312 -0.0820312 "/></g></g></g><g fill="#ffffff" fill-opacity="1"><g transform="translate(39.171518, 98.842598)"><g><path d="M 1.171875 -0.078125 L 11.113281 -0.753906 C 11.441406 -0.773438 11.707031 -1.050781 11.683594 -1.378906 L 11.480469 -4.429688 C 11.457031 -4.757812 11.695312 -5.03125 12.023438 -5.054688 C 12.351562 -5.078125 12.628906 -4.835938 12.652344 -4.507812 L 12.855469 -1.484375 C 12.878906 -1.15625 13.15625 -0.890625 13.484375 -0.914062 L 23.425781 -1.585938 C 23.753906 -1.609375 24.019531 -1.886719 23.996094 -2.214844 L 22.804688 -19.800781 C 22.78125 -20.128906 22.507812 -20.371094 22.179688 -20.347656 L 16.339844 -19.953125 C 16.011719 -19.929688 15.746094 -19.652344 15.769531 -19.324219 L 16.484375 -8.773438 C 16.507812 -8.445312 16.265625 -8.167969 15.9375 -8.144531 C 15.609375 -8.125 15.335938 -8.363281 15.3125 -8.691406 L 14.59375 -19.292969 C 14.574219 -19.597656 14.277344 -19.8125 13.972656 -19.792969 L 8.109375 -19.394531 C 7.804688 -19.375 7.539062 -19.121094 7.558594 -18.816406 L 8.277344 -8.214844 C 8.300781 -7.886719 8.058594 -7.613281 7.730469 -7.589844 C 7.402344 -7.566406 7.128906 -7.808594 7.105469 -8.136719 L 6.390625 -18.6875 C 6.367188 -19.015625 6.09375 -19.257812 5.765625 -19.234375 L -0.0742188 -18.839844 C -0.402344 -18.816406 -0.667969 -18.542969 -0.644531 -18.214844 L 0.546875 -0.625 C 0.570312 -0.296875 0.84375 -0.0585938 1.171875 -0.078125 Z M 1.171875 -0.078125 "/></g></g></g><g fill="#ffffff" fill-opacity="1"><g transform="translate(63.783455, 97.175999)"><g><path d="M 1.195312 -0.0820312 L 7.035156 -0.476562 C 7.363281 -0.5 7.605469 -0.773438 7.582031 -1.101562 L 7.359375 -4.386719 C 7.335938 -4.714844 7.578125 -4.988281 7.90625 -5.011719 C 8.234375 -5.035156 8.511719 -4.769531 8.53125 -4.441406 L 8.753906 -1.183594 C 8.777344 -0.851562 9.074219 -0.613281 9.402344 -0.636719 L 15.242188 -1.03125 C 15.570312 -1.054688 15.8125 -1.328125 15.789062 -1.65625 L 14.882812 -15.046875 C 14.695312 -17.816406 12.542969 -19.695312 9.773438 -19.507812 L 4.097656 -19.125 C 1.332031 -18.9375 -0.546875 -16.78125 -0.359375 -14.015625 L 0.546875 -0.625 C 0.570312 -0.296875 0.867188 -0.0585938 1.195312 -0.0820312 Z M 7.523438 -10.640625 C 7.195312 -10.617188 6.921875 -10.855469 6.898438 -11.183594 L 6.773438 -13.0625 C 6.75 -13.390625 6.988281 -13.664062 7.316406 -13.6875 C 7.644531 -13.710938 7.921875 -13.46875 7.945312 -13.140625 L 8.070312 -11.265625 C 8.09375 -10.9375 7.851562 -10.660156 7.523438 -10.640625 Z M 7.523438 -10.640625 "/></g></g></g><g fill="#ffffff" fill-opacity="1"><g transform="translate(80.191409, 96.064933)"><g><path d="M 1.171875 -0.078125 L 14.070312 -0.953125 C 14.398438 -0.976562 14.636719 -1.25 14.617188 -1.578125 L 14.265625 -6.738281 C 14.246094 -7.066406 13.96875 -7.304688 13.640625 -7.285156 L 7.800781 -6.886719 C 7.472656 -6.867188 7.175781 -7.105469 7.152344 -7.433594 L 6.390625 -18.664062 C 6.371094 -18.992188 6.09375 -19.257812 5.765625 -19.234375 L -0.0742188 -18.839844 C -0.402344 -18.816406 -0.667969 -18.542969 -0.644531 -18.214844 L 0.546875 -0.625 C 0.570312 -0.296875 0.84375 -0.0585938 1.171875 -0.078125 Z M 1.171875 -0.078125 "/></g></g></g><g fill="#ffffff" fill-opacity="1"><g transform="translate(95.427372, 95.033229)"><g><path d="M 1.171875 -0.078125 L 14.070312 -0.953125 C 14.398438 -0.976562 14.636719 -1.25 14.617188 -1.578125 L 14.265625 -6.738281 C 14.246094 -7.066406 13.96875 -7.304688 13.640625 -7.285156 L 7.800781 -6.886719 C 7.472656 -6.867188 7.175781 -7.105469 7.152344 -7.433594 L 6.390625 -18.664062 C 6.371094 -18.992188 6.09375 -19.257812 5.765625 -19.234375 L -0.0742188 -18.839844 C -0.402344 -18.816406 -0.667969 -18.542969 -0.644531 -18.214844 L 0.546875 -0.625 C 0.570312 -0.296875 0.84375 -0.0585938 1.171875 -0.078125 Z M 1.171875 -0.078125 "/></g></g></g><g fill="#ffffff" fill-opacity="1"><g transform="translate(110.663336, 94.001524)"><g><path d="M 1.195312 -0.0820312 L 18.78125 -1.273438 C 19.109375 -1.292969 19.351562 -1.570312 19.328125 -1.898438 L 19.027344 -6.351562 C 19.003906 -6.679688 18.707031 -6.921875 18.378906 -6.898438 L 7.824219 -6.183594 C 7.496094 -6.160156 7.222656 -6.402344 7.199219 -6.730469 C 7.179688 -7.058594 7.417969 -7.332031 7.746094 -7.355469 L 17.382812 -8.007812 C 17.710938 -8.03125 17.953125 -8.304688 17.929688 -8.632812 L 17.660156 -12.621094 C 17.640625 -12.949219 17.339844 -13.1875 17.011719 -13.164062 L 7.398438 -12.515625 C 7.070312 -12.492188 6.792969 -12.734375 6.773438 -13.0625 C 6.75 -13.390625 6.988281 -13.664062 7.316406 -13.6875 L 17.894531 -14.402344 C 18.222656 -14.425781 18.460938 -14.699219 18.441406 -15.03125 L 18.136719 -19.484375 C 18.117188 -19.8125 17.839844 -20.054688 17.511719 -20.03125 L -0.0976562 -18.839844 C -0.425781 -18.816406 -0.667969 -18.542969 -0.644531 -18.214844 L 0.546875 -0.625 C 0.570312 -0.296875 0.867188 -0.0585938 1.195312 -0.0820312 Z M 1.195312 -0.0820312 "/></g></g></g><g fill="#ffffff" fill-opacity="1"><g transform="translate(130.610723, 92.650786)"><g><path d="M 1.171875 -0.078125 L 7.035156 -0.476562 C 7.363281 -0.5 7.601562 -0.796875 7.578125 -1.125 L 7.207031 -6.613281 C 7.1875 -6.941406 7.425781 -7.214844 7.753906 -7.238281 L 11.273438 -7.476562 C 11.601562 -7.5 11.875 -7.257812 11.898438 -6.929688 L 12.269531 -1.417969 C 12.292969 -1.089844 12.570312 -0.851562 12.898438 -0.875 L 18.757812 -1.269531 C 19.085938 -1.292969 19.328125 -1.589844 19.304688 -1.917969 L 18.914062 -7.710938 C 18.820312 -9.09375 17.742188 -10.035156 16.359375 -9.941406 L 16.148438 -9.925781 C 15.820312 -9.90625 15.542969 -10.144531 15.519531 -10.472656 C 15.5 -10.800781 15.738281 -11.078125 16.066406 -11.101562 L 16.277344 -11.113281 C 17.664062 -11.207031 18.601562 -12.285156 18.507812 -13.667969 L 18.335938 -16.246094 C 18.183594 -18.453125 16.457031 -19.960938 14.253906 -19.8125 L -0.0976562 -18.839844 C -0.425781 -18.816406 -0.667969 -18.542969 -0.644531 -18.214844 L 0.546875 -0.625 C 0.570312 -0.296875 0.84375 -0.0585938 1.171875 -0.078125 Z M 7.390625 -12.632812 C 7.0625 -12.609375 6.785156 -12.851562 6.761719 -13.179688 C 6.742188 -13.507812 6.980469 -13.78125 7.308594 -13.804688 L 10.828125 -14.042969 C 11.15625 -14.066406 11.429688 -13.824219 11.453125 -13.496094 C 11.476562 -13.167969 11.234375 -12.890625 10.90625 -12.871094 Z M 7.390625 -12.632812 "/></g></g></g></svg>