<svg xmlns="http://www.w3.org/2000/svg" xmlns:xlink="http://www.w3.org/1999/xlink" zoomAndPan="magnify" preserveAspectRatio="xMidYMid meet" version="1.0" viewBox="26 39.02 137.39 62.59"><defs><g/></defs><path stroke-linecap="butt" transform="matrix(0.874692, 0, 0, 0.874692, 11.670154, 48.218749)" fill="none" stroke-linejoin="miter" d="M 29.105947 22.999156 L 35.795798 22.999156 C 36.17093 22.999156 36.465677 22.70441 36.465677 22.329278 L 36.465677 10.369717 C 36.465677 9.999051 36.760423 9.695373 37.140021 9.695373 C 37.515153 9.695373 37.809899 9.999051 37.809899 10.369717 L 37.809899 22.382868 C 37.809899 22.731205 38.131441 22.999156 38.479778 22.999156 L 45.196424 22.999156 C 45.553692 22.999156 45.870768 22.731205 45.870768 22.382868 L 45.870768 10.369717 C 45.870768 9.999051 46.16998 9.695373 46.540646 9.695373 C 46.92471 9.695373 47.219456 9.999051 47.219456 10.369717 L 47.219456 22.329278 C 47.219456 22.70441 47.540998 22.999156 47.911664 22.999156 L 54.605981 22.999156 C 54.976647 22.999156 55.271394 22.70441 55.271394 22.329278 L 55.271394 2.179339 C 55.271394 1.799741 54.949852 1.500529 54.579186 1.500529 L 43.182323 1.500529 C 42.807191 1.500529 42.512445 1.82207 42.512445 2.206134 L 42.512445 5.935123 C 42.512445 6.310255 42.217698 6.605001 41.838101 6.605001 C 41.462969 6.605001 41.168222 6.310255 41.168222 5.935123 L 41.168222 2.179339 C 41.168222 1.799741 40.846681 1.500529 40.476015 1.500529 L 29.079152 1.500529 C 28.699554 1.500529 28.404808 1.799741 28.404808 2.179339 L 28.404808 22.329278 C 28.404808 22.70441 28.730815 22.999156 29.105947 22.999156 Z M 57.307824 22.999156 L 77.462229 22.999156 C 77.832895 22.999156 78.127641 22.70441 78.127641 22.329278 L 78.127641 17.220339 C 78.127641 16.845207 77.806099 16.550461 77.435433 16.550461 L 65.341897 16.550461 C 64.9623 16.550461 64.667553 16.255714 64.667553 15.880583 C 64.667553 15.500985 64.9623 15.206238 65.341897 15.206238 L 76.385957 15.206238 C 76.756623 15.206238 77.05137 14.911492 77.05137 14.53636 L 77.05137 9.963324 C 77.05137 9.592658 76.729828 9.297912 76.359162 9.297912 L 65.341897 9.297912 C 64.9623 9.297912 64.667553 8.9987 64.667553 8.628034 C 64.667553 8.248436 64.9623 7.949224 65.341897 7.949224 L 77.462229 7.949224 C 77.832895 7.949224 78.127641 7.654477 78.127641 7.283811 L 78.127641 2.179339 C 78.127641 1.799741 77.832895 1.500529 77.462229 1.500529 L 57.281028 1.500529 C 56.901431 1.500529 56.606684 1.799741 56.606684 2.179339 L 56.606684 22.329278 C 56.606684 22.70441 56.932692 22.999156 57.307824 22.999156 Z M 80.164071 22.999156 L 86.858388 22.999156 C 87.229054 22.999156 87.523801 22.70441 87.523801 22.329278 L 87.523801 18.564562 C 87.523801 18.18943 87.818547 17.894683 88.202611 17.894683 C 88.573277 17.894683 88.868023 18.216225 88.868023 18.591357 L 88.868023 22.329278 C 88.868023 22.70441 89.189565 22.999156 89.564696 22.999156 L 96.254548 22.999156 C 96.638611 22.999156 96.933358 22.70441 96.933358 22.329278 L 96.933358 6.989065 C 96.933358 3.813842 94.624511 1.500529 91.449287 1.500529 L 84.947002 1.500529 C 81.780711 1.500529 79.462932 3.813842 79.462932 6.989065 L 79.462932 22.329278 C 79.462932 22.70441 79.788939 22.999156 80.164071 22.999156 Z M 88.202611 11.445988 C 87.818547 11.445988 87.523801 11.151242 87.523801 10.771644 L 87.523801 8.628034 C 87.523801 8.248436 87.818547 7.949224 88.202611 7.949224 C 88.573277 7.949224 88.868023 8.248436 88.868023 8.628034 L 88.868023 10.771644 C 88.868023 11.151242 88.573277 11.445988 88.202611 11.445988 Z M 103.748253 22.999156 L 115.060264 22.999156 C 115.413067 22.999156 115.734609 22.677614 115.734609 22.302483 L 115.761404 10.771644 C 115.761404 10.396512 115.439862 10.101766 115.060264 10.101766 L 108.365947 10.101766 C 108.017611 10.101766 107.696069 10.423307 107.696069 10.798439 L 107.67374 15.076729 C 107.67374 15.447395 107.352198 15.746607 107.003861 15.746607 C 106.619798 15.746607 106.325051 15.447395 106.325051 15.076729 L 106.325051 9.431888 C 106.325051 9.05229 106.619798 8.757543 107.003861 8.757543 L 115.060264 8.757543 C 115.439862 8.757543 115.734609 8.436002 115.734609 8.06087 L 115.734609 2.179339 C 115.734609 1.799741 115.439862 1.500529 115.060264 1.500529 L 103.748253 1.500529 C 100.581962 1.500529 98.264183 3.813842 98.264183 6.989065 L 98.264183 17.515086 C 98.264183 20.690309 100.581962 22.999156 103.748253 22.999156 Z M 117.793368 22.999156 L 124.487685 22.999156 C 124.858351 22.999156 125.153097 22.70441 125.153097 22.329278 L 125.153097 18.564562 C 125.153097 18.18943 125.45231 17.894683 125.831907 17.894683 C 126.202573 17.894683 126.501786 18.216225 126.501786 18.591357 L 126.501786 22.329278 C 126.501786 22.70441 126.823327 22.999156 127.193993 22.999156 L 133.88831 22.999156 C 134.267908 22.999156 134.562655 22.70441 134.562655 22.329278 L 134.562655 6.989065 C 134.562655 3.813842 132.253807 1.500529 129.078584 1.500529 L 122.576299 1.500529 C 119.410008 1.500529 117.092229 3.813842 117.092229 6.989065 L 117.092229 22.329278 C 117.092229 22.70441 117.422702 22.999156 117.793368 22.999156 Z M 125.831907 11.445988 C 125.45231 11.445988 125.153097 11.151242 125.153097 10.771644 L 125.153097 8.628034 C 125.153097 8.248436 125.45231 7.949224 125.831907 7.949224 C 126.202573 7.949224 126.501786 8.248436 126.501786 8.628034 L 126.501786 10.771644 C 126.501786 11.151242 126.202573 11.445988 125.831907 11.445988 Z M 136.594619 22.999156 L 143.288936 22.999156 C 143.659602 22.999156 143.958814 22.70441 143.958814 22.329278 L 143.958814 10.369717 C 143.958814 9.999051 144.253561 9.695373 144.633158 9.695373 C 145.00829 9.695373 145.303037 9.999051 145.303037 10.369717 L 145.303037 22.356073 C 145.303037 22.758 145.597783 22.999156 145.995244 22.999156 L 160.75043 22.999156 C 161.130028 22.999156 161.424774 22.70441 161.424774 22.329278 L 161.424774 2.179339 C 161.424774 1.799741 161.130028 1.500529 160.75043 1.500529 L 154.033784 1.500529 C 153.658652 1.500529 153.363906 1.799741 153.363906 2.179339 L 153.363906 14.321999 C 153.363906 14.697131 153.069159 14.991877 152.689561 14.991877 C 152.31443 14.991877 152.019683 14.697131 152.019683 14.321999 L 152.019683 2.152543 C 152.019683 1.719355 151.724937 1.500529 151.318544 1.500529 L 136.567824 1.500529 C 136.188226 1.500529 135.89348 1.799741 135.89348 2.179339 L 135.89348 22.329278 C 135.89348 22.70441 136.223953 22.999156 136.594619 22.999156 Z M 136.594619 22.999156 " stroke="#0ecdad" stroke-width="4.669045" stroke-opacity="1" stroke-miterlimit="4"/><path stroke-linecap="butt" transform="matrix(0.874692, 0, 0, 0.874692, 11.670154, 48.218749)" fill="none" stroke-linejoin="miter" d="M 32.455339 48.999366 L 43.847736 48.999366 C 44.222867 48.999366 44.544409 48.704619 44.544409 48.329487 L 44.544409 44.832723 C 44.544409 44.462057 44.839155 44.16731 45.214287 44.16731 C 45.593885 44.16731 45.888631 44.462057 45.888631 44.832723 L 45.888631 48.302692 C 45.888631 48.677824 46.183378 48.999366 46.55851 48.999366 L 57.950907 48.999366 C 58.326039 48.999366 58.64758 48.704619 58.64758 48.329487 L 58.64758 28.179548 C 58.64758 27.79995 58.352834 27.500738 57.977702 27.500738 L 51.287851 27.500738 C 50.912719 27.500738 50.591177 27.79995 50.591177 28.179548 L 50.591177 40.268619 C 50.591177 40.64375 50.296431 40.938497 49.916833 40.938497 C 49.541701 40.938497 49.246955 40.64375 49.246955 40.268619 L 49.246955 28.121492 C 49.246955 27.773155 48.925413 27.500738 48.572611 27.500738 L 41.855964 27.500738 C 41.507627 27.500738 41.186086 27.773155 41.186086 28.121492 L 41.186086 40.268619 C 41.186086 40.64375 40.891339 40.938497 40.516208 40.938497 C 40.13661 40.938497 39.841863 40.64375 39.841863 40.268619 L 39.841863 28.179548 C 39.841863 27.79995 39.547117 27.500738 39.171985 27.500738 L 32.482134 27.500738 C 32.107002 27.500738 31.776529 27.79995 31.776529 28.179548 L 31.776529 48.329487 C 31.776529 48.704619 32.075741 48.999366 32.455339 48.999366 Z M 60.68401 48.999366 L 67.373861 48.999366 C 67.748993 48.999366 68.04374 48.704619 68.04374 48.329487 L 68.04374 44.564771 C 68.04374 44.189639 68.338486 43.894893 68.718084 43.894893 C 69.093216 43.894893 69.387962 44.216435 69.387962 44.591566 L 69.387962 48.329487 C 69.387962 48.704619 69.709504 48.999366 70.084636 48.999366 L 76.774487 48.999366 C 77.154085 48.999366 77.448831 48.704619 77.448831 48.329487 L 77.448831 32.984808 C 77.448831 29.814051 75.139984 27.500738 71.964761 27.500738 L 65.466941 27.500738 C 62.296184 27.500738 59.982871 29.814051 59.982871 32.984808 L 59.982871 48.329487 C 59.982871 48.704619 60.308878 48.999366 60.68401 48.999366 Z M 68.718084 37.446198 C 68.338486 37.446198 68.04374 37.151452 68.04374 36.771854 L 68.04374 34.628243 C 68.04374 34.248646 68.338486 33.949433 68.718084 33.949433 C 69.093216 33.949433 69.387962 34.248646 69.387962 34.628243 L 69.387962 36.771854 C 69.387962 37.151452 69.093216 37.446198 68.718084 37.446198 Z M 79.458466 48.999366 L 94.235981 48.999366 C 94.611113 48.999366 94.905859 48.704619 94.905859 48.329487 L 94.905859 42.412229 C 94.905859 42.041563 94.611113 41.742351 94.235981 41.742351 L 87.54613 41.742351 C 87.166532 41.742351 86.844991 41.447604 86.844991 41.076938 L 86.844991 28.206343 C 86.844991 27.82228 86.550244 27.500738 86.175112 27.500738 L 79.485261 27.500738 C 79.110129 27.500738 78.784122 27.79995 78.784122 28.179548 L 78.784122 48.329487 C 78.784122 48.704619 79.078868 48.999366 79.458466 48.999366 Z M 96.915494 48.999366 L 111.697475 48.999366 C 112.068141 48.999366 112.367354 48.704619 112.367354 48.329487 L 112.367354 42.412229 C 112.367354 42.041563 112.068141 41.742351 111.697475 41.742351 L 105.003158 41.742351 C 104.623561 41.742351 104.302019 41.447604 104.302019 41.076938 L 104.302019 28.206343 C 104.302019 27.82228 104.007273 27.500738 103.632141 27.500738 L 96.942289 27.500738 C 96.567158 27.500738 96.24115 27.79995 96.24115 28.179548 L 96.24115 48.329487 C 96.24115 48.704619 96.535897 48.999366 96.915494 48.999366 Z M 114.399318 48.999366 L 134.553723 48.999366 C 134.928855 48.999366 135.223601 48.704619 135.223601 48.329487 L 135.223601 43.220549 C 135.223601 42.845417 134.90206 42.550671 134.526928 42.550671 L 122.437857 42.550671 C 122.05826 42.550671 121.763513 42.255924 121.763513 41.880792 C 121.763513 41.501195 122.05826 41.206448 122.437857 41.206448 L 133.477452 41.206448 C 133.852584 41.206448 134.14733 40.911702 134.14733 40.53657 L 134.14733 35.963534 C 134.14733 35.592868 133.825789 35.298122 133.450657 35.298122 L 122.437857 35.298122 C 122.05826 35.298122 121.763513 34.998909 121.763513 34.628243 C 121.763513 34.248646 122.05826 33.949433 122.437857 33.949433 L 134.553723 33.949433 C 134.928855 33.949433 135.223601 33.654687 135.223601 33.284021 L 135.223601 28.179548 C 135.223601 27.79995 134.928855 27.500738 134.553723 27.500738 L 114.376989 27.500738 C 113.992925 27.500738 113.698179 27.79995 113.698179 28.179548 L 113.698179 48.329487 C 113.698179 48.704619 114.028652 48.999366 114.399318 48.999366 Z M 137.233236 48.999366 L 143.949883 48.999366 C 144.325014 48.999366 144.619761 48.677824 144.619761 48.302692 L 144.619761 42.014768 C 144.619761 41.639636 144.914507 41.34489 145.294105 41.34489 L 149.322306 41.34489 C 149.697438 41.34489 149.992185 41.639636 149.992185 42.014768 L 149.992185 48.329487 C 149.992185 48.704619 150.286931 48.999366 150.666529 48.999366 L 157.383175 48.999366 C 157.758307 48.999366 158.053054 48.677824 158.053054 48.302692 L 158.053054 41.666431 C 158.053054 40.076587 156.900863 38.924396 155.311018 38.924396 L 155.074328 38.924396 C 154.69473 38.924396 154.399984 38.62965 154.399984 38.254518 C 154.399984 37.87492 154.69473 37.580174 155.074328 37.580174 L 155.311018 37.580174 C 156.900863 37.580174 158.053054 36.423517 158.053054 34.838138 L 158.053054 31.886208 C 158.053054 29.358534 156.20419 27.500738 153.676515 27.500738 L 137.233236 27.500738 C 136.853638 27.500738 136.554426 27.79995 136.554426 28.179548 L 136.554426 48.329487 C 136.554426 48.704619 136.853638 48.999366 137.233236 48.999366 Z M 145.294105 35.164146 C 144.914507 35.164146 144.619761 34.869399 144.619761 34.489802 C 144.619761 34.11467 144.914507 33.819923 145.294105 33.819923 L 149.322306 33.819923 C 149.697438 33.819923 149.992185 34.11467 149.992185 34.489802 C 149.992185 34.869399 149.697438 35.164146 149.322306 35.164146 Z M 145.294105 35.164146 " stroke="#0ecdad" stroke-width="4.669045" stroke-opacity="1" stroke-miterlimit="4"/><g fill="#ffffff" fill-opacity="1"><g transform="translate(35.929202, 68.336676)"><g><path d="M 1.199219 0 L 7.050781 0 C 7.378906 0 7.636719 -0.257812 7.636719 -0.585938 L 7.636719 -11.046875 C 7.636719 -11.375 7.898438 -11.632812 8.226562 -11.632812 C 8.554688 -11.632812 8.8125 -11.375 8.8125 -11.046875 L 8.8125 -0.539062 C 8.8125 -0.234375 9.09375 0 9.402344 0 L 15.277344 0 C 15.582031 0 15.863281 -0.234375 15.863281 -0.539062 L 15.863281 -11.046875 C 15.863281 -11.375 16.125 -11.632812 16.453125 -11.632812 C 16.78125 -11.632812 17.039062 -11.375 17.039062 -11.046875 L 17.039062 -0.585938 C 17.039062 -0.257812 17.320312 0 17.652344 0 L 23.503906 0 C 23.832031 0 24.089844 -0.257812 24.089844 -0.585938 L 24.089844 -18.214844 C 24.089844 -18.542969 23.808594 -18.800781 23.480469 -18.800781 L 13.515625 -18.800781 C 13.183594 -18.800781 12.925781 -18.519531 12.925781 -18.191406 L 12.925781 -14.925781 C 12.925781 -14.59375 12.667969 -14.335938 12.339844 -14.335938 C 12.011719 -14.335938 11.75 -14.59375 11.75 -14.925781 L 11.75 -18.214844 C 11.75 -18.542969 11.46875 -18.800781 11.140625 -18.800781 L 1.175781 -18.800781 C 0.847656 -18.800781 0.585938 -18.542969 0.585938 -18.214844 L 0.585938 -0.585938 C 0.585938 -0.257812 0.871094 0 1.199219 0 Z M 1.199219 0 "/></g></g></g><g fill="#ffffff" fill-opacity="1"><g transform="translate(60.597502, 68.336676)"><g><path d="M 1.199219 0 L 18.824219 0 C 19.15625 0 19.414062 -0.257812 19.414062 -0.585938 L 19.414062 -5.054688 C 19.414062 -5.382812 19.132812 -5.640625 18.800781 -5.640625 L 8.226562 -5.640625 C 7.898438 -5.640625 7.636719 -5.898438 7.636719 -6.226562 C 7.636719 -6.558594 7.898438 -6.816406 8.226562 -6.816406 L 17.886719 -6.816406 C 18.214844 -6.816406 18.472656 -7.074219 18.472656 -7.402344 L 18.472656 -11.398438 C 18.472656 -11.726562 18.191406 -11.988281 17.863281 -11.988281 L 8.226562 -11.988281 C 7.898438 -11.988281 7.636719 -12.246094 7.636719 -12.574219 C 7.636719 -12.902344 7.898438 -13.160156 8.226562 -13.160156 L 18.824219 -13.160156 C 19.15625 -13.160156 19.414062 -13.421875 19.414062 -13.75 L 19.414062 -18.214844 C 19.414062 -18.542969 19.15625 -18.800781 18.824219 -18.800781 L 1.175781 -18.800781 C 0.847656 -18.800781 0.585938 -18.542969 0.585938 -18.214844 L 0.585938 -0.585938 C 0.585938 -0.257812 0.871094 0 1.199219 0 Z M 1.199219 0 "/></g></g></g><g fill="#ffffff" fill-opacity="1"><g transform="translate(80.59057, 68.336676)"><g><path d="M 1.199219 0 L 7.050781 0 C 7.378906 0 7.636719 -0.257812 7.636719 -0.585938 L 7.636719 -3.878906 C 7.636719 -4.207031 7.898438 -4.464844 8.226562 -4.464844 C 8.554688 -4.464844 8.8125 -4.183594 8.8125 -3.855469 L 8.8125 -0.585938 C 8.8125 -0.257812 9.09375 0 9.425781 0 L 15.277344 0 C 15.605469 0 15.863281 -0.257812 15.863281 -0.585938 L 15.863281 -14.007812 C 15.863281 -16.78125 13.84375 -18.800781 11.070312 -18.800781 L 5.382812 -18.800781 C 2.609375 -18.800781 0.585938 -16.78125 0.585938 -14.007812 L 0.585938 -0.585938 C 0.585938 -0.257812 0.871094 0 1.199219 0 Z M 8.226562 -10.105469 C 7.898438 -10.105469 7.636719 -10.363281 7.636719 -10.695312 L 7.636719 -12.574219 C 7.636719 -12.902344 7.898438 -13.160156 8.226562 -13.160156 C 8.554688 -13.160156 8.8125 -12.902344 8.8125 -12.574219 L 8.8125 -10.695312 C 8.8125 -10.363281 8.554688 -10.105469 8.226562 -10.105469 Z M 8.226562 -10.105469 "/></g></g></g><g fill="#ffffff" fill-opacity="1"><g transform="translate(97.036099, 68.336676)"><g><path d="M 5.382812 0 L 15.277344 0 C 15.582031 0 15.863281 -0.28125 15.863281 -0.609375 L 15.886719 -10.695312 C 15.886719 -11.023438 15.605469 -11.28125 15.277344 -11.28125 L 9.425781 -11.28125 C 9.121094 -11.28125 8.835938 -11 8.835938 -10.671875 L 8.8125 -6.933594 C 8.8125 -6.605469 8.53125 -6.347656 8.226562 -6.347656 C 7.898438 -6.347656 7.636719 -6.605469 7.636719 -6.933594 L 7.636719 -11.867188 C 7.636719 -12.199219 7.898438 -12.457031 8.226562 -12.457031 L 15.277344 -12.457031 C 15.605469 -12.457031 15.863281 -12.738281 15.863281 -13.066406 L 15.863281 -18.214844 C 15.863281 -18.542969 15.605469 -18.800781 15.277344 -18.800781 L 5.382812 -18.800781 C 2.609375 -18.800781 0.585938 -16.78125 0.585938 -14.007812 L 0.585938 -4.792969 C 0.585938 -2.019531 2.609375 0 5.382812 0 Z M 5.382812 0 "/></g></g></g><g fill="#ffffff" fill-opacity="1"><g transform="translate(113.505118, 68.336676)"><g><path d="M 1.199219 0 L 7.050781 0 C 7.378906 0 7.636719 -0.257812 7.636719 -0.585938 L 7.636719 -3.878906 C 7.636719 -4.207031 7.898438 -4.464844 8.226562 -4.464844 C 8.554688 -4.464844 8.8125 -4.183594 8.8125 -3.855469 L 8.8125 -0.585938 C 8.8125 -0.257812 9.09375 0 9.425781 0 L 15.277344 0 C 15.605469 0 15.863281 -0.257812 15.863281 -0.585938 L 15.863281 -14.007812 C 15.863281 -16.78125 13.84375 -18.800781 11.070312 -18.800781 L 5.382812 -18.800781 C 2.609375 -18.800781 0.585938 -16.78125 0.585938 -14.007812 L 0.585938 -0.585938 C 0.585938 -0.257812 0.871094 0 1.199219 0 Z M 8.226562 -10.105469 C 7.898438 -10.105469 7.636719 -10.363281 7.636719 -10.695312 L 7.636719 -12.574219 C 7.636719 -12.902344 7.898438 -13.160156 8.226562 -13.160156 C 8.554688 -13.160156 8.8125 -12.902344 8.8125 -12.574219 L 8.8125 -10.695312 C 8.8125 -10.363281 8.554688 -10.105469 8.226562 -10.105469 Z M 8.226562 -10.105469 "/></g></g></g><g fill="#ffffff" fill-opacity="1"><g transform="translate(129.950647, 68.336676)"><g><path d="M 1.199219 0 L 7.050781 0 C 7.378906 0 7.636719 -0.257812 7.636719 -0.585938 L 7.636719 -11.046875 C 7.636719 -11.375 7.898438 -11.632812 8.226562 -11.632812 C 8.554688 -11.632812 8.8125 -11.375 8.8125 -11.046875 L 8.8125 -0.5625 C 8.8125 -0.210938 9.070312 0 9.425781 0 L 22.328125 0 C 22.65625 0 22.914062 -0.257812 22.914062 -0.585938 L 22.914062 -18.214844 C 22.914062 -18.542969 22.65625 -18.800781 22.328125 -18.800781 L 16.453125 -18.800781 C 16.125 -18.800781 15.863281 -18.542969 15.863281 -18.214844 L 15.863281 -7.589844 C 15.863281 -7.261719 15.605469 -7.003906 15.277344 -7.003906 C 14.949219 -7.003906 14.6875 -7.261719 14.6875 -7.589844 L 14.6875 -18.238281 C 14.6875 -18.613281 14.429688 -18.800781 14.078125 -18.800781 L 1.175781 -18.800781 C 0.847656 -18.800781 0.585938 -18.542969 0.585938 -18.214844 L 0.585938 -0.585938 C 0.585938 -0.257812 0.871094 0 1.199219 0 Z M 1.199219 0 "/></g></g></g><g fill="#ffffff" fill-opacity="1"><g transform="translate(38.881289, 91.07868)"><g><path d="M 1.175781 0 L 11.140625 0 C 11.46875 0 11.75 -0.257812 11.75 -0.585938 L 11.75 -3.644531 C 11.75 -3.972656 12.011719 -4.230469 12.339844 -4.230469 C 12.667969 -4.230469 12.925781 -3.972656 12.925781 -3.644531 L 12.925781 -0.609375 C 12.925781 -0.28125 13.183594 0 13.515625 0 L 23.480469 0 C 23.808594 0 24.089844 -0.257812 24.089844 -0.585938 L 24.089844 -18.214844 C 24.089844 -18.542969 23.832031 -18.800781 23.503906 -18.800781 L 17.652344 -18.800781 C 17.320312 -18.800781 17.039062 -18.542969 17.039062 -18.214844 L 17.039062 -7.636719 C 17.039062 -7.308594 16.78125 -7.050781 16.453125 -7.050781 C 16.125 -7.050781 15.863281 -7.308594 15.863281 -7.636719 L 15.863281 -18.261719 C 15.863281 -18.566406 15.582031 -18.800781 15.277344 -18.800781 L 9.402344 -18.800781 C 9.09375 -18.800781 8.8125 -18.566406 8.8125 -18.261719 L 8.8125 -7.636719 C 8.8125 -7.308594 8.554688 -7.050781 8.226562 -7.050781 C 7.898438 -7.050781 7.636719 -7.308594 7.636719 -7.636719 L 7.636719 -18.214844 C 7.636719 -18.542969 7.378906 -18.800781 7.050781 -18.800781 L 1.199219 -18.800781 C 0.871094 -18.800781 0.585938 -18.542969 0.585938 -18.214844 L 0.585938 -0.585938 C 0.585938 -0.257812 0.847656 0 1.175781 0 Z M 1.175781 0 "/></g></g></g><g fill="#ffffff" fill-opacity="1"><g transform="translate(63.549589, 91.07868)"><g><path d="M 1.199219 0 L 7.050781 0 C 7.378906 0 7.636719 -0.257812 7.636719 -0.585938 L 7.636719 -3.878906 C 7.636719 -4.207031 7.898438 -4.464844 8.226562 -4.464844 C 8.554688 -4.464844 8.8125 -4.183594 8.8125 -3.855469 L 8.8125 -0.585938 C 8.8125 -0.257812 9.09375 0 9.425781 0 L 15.277344 0 C 15.605469 0 15.863281 -0.257812 15.863281 -0.585938 L 15.863281 -14.007812 C 15.863281 -16.78125 13.84375 -18.800781 11.070312 -18.800781 L 5.382812 -18.800781 C 2.609375 -18.800781 0.585938 -16.78125 0.585938 -14.007812 L 0.585938 -0.585938 C 0.585938 -0.257812 0.871094 0 1.199219 0 Z M 8.226562 -10.105469 C 7.898438 -10.105469 7.636719 -10.363281 7.636719 -10.695312 L 7.636719 -12.574219 C 7.636719 -12.902344 7.898438 -13.160156 8.226562 -13.160156 C 8.554688 -13.160156 8.8125 -12.902344 8.8125 -12.574219 L 8.8125 -10.695312 C 8.8125 -10.363281 8.554688 -10.105469 8.226562 -10.105469 Z M 8.226562 -10.105469 "/></g></g></g><g fill="#ffffff" fill-opacity="1"><g transform="translate(79.995118, 91.07868)"><g><path d="M 1.175781 0 L 14.101562 0 C 14.429688 0 14.6875 -0.257812 14.6875 -0.585938 L 14.6875 -5.757812 C 14.6875 -6.085938 14.429688 -6.347656 14.101562 -6.347656 L 8.25 -6.347656 C 7.921875 -6.347656 7.636719 -6.605469 7.636719 -6.933594 L 7.636719 -18.191406 C 7.636719 -18.519531 7.378906 -18.800781 7.050781 -18.800781 L 1.199219 -18.800781 C 0.871094 -18.800781 0.585938 -18.542969 0.585938 -18.214844 L 0.585938 -0.585938 C 0.585938 -0.257812 0.847656 0 1.175781 0 Z M 1.175781 0 "/></g></g></g><g fill="#ffffff" fill-opacity="1"><g transform="translate(95.265973, 91.07868)"><g><path d="M 1.175781 0 L 14.101562 0 C 14.429688 0 14.6875 -0.257812 14.6875 -0.585938 L 14.6875 -5.757812 C 14.6875 -6.085938 14.429688 -6.347656 14.101562 -6.347656 L 8.25 -6.347656 C 7.921875 -6.347656 7.636719 -6.605469 7.636719 -6.933594 L 7.636719 -18.191406 C 7.636719 -18.519531 7.378906 -18.800781 7.050781 -18.800781 L 1.199219 -18.800781 C 0.871094 -18.800781 0.585938 -18.542969 0.585938 -18.214844 L 0.585938 -0.585938 C 0.585938 -0.257812 0.847656 0 1.175781 0 Z M 1.175781 0 "/></g></g></g><g fill="#ffffff" fill-opacity="1"><g transform="translate(110.536828, 91.07868)"><g><path d="M 1.199219 0 L 18.824219 0 C 19.15625 0 19.414062 -0.257812 19.414062 -0.585938 L 19.414062 -5.054688 C 19.414062 -5.382812 19.132812 -5.640625 18.800781 -5.640625 L 8.226562 -5.640625 C 7.898438 -5.640625 7.636719 -5.898438 7.636719 -6.226562 C 7.636719 -6.558594 7.898438 -6.816406 8.226562 -6.816406 L 17.886719 -6.816406 C 18.214844 -6.816406 18.472656 -7.074219 18.472656 -7.402344 L 18.472656 -11.398438 C 18.472656 -11.726562 18.191406 -11.988281 17.863281 -11.988281 L 8.226562 -11.988281 C 7.898438 -11.988281 7.636719 -12.246094 7.636719 -12.574219 C 7.636719 -12.902344 7.898438 -13.160156 8.226562 -13.160156 L 18.824219 -13.160156 C 19.15625 -13.160156 19.414062 -13.421875 19.414062 -13.75 L 19.414062 -18.214844 C 19.414062 -18.542969 19.15625 -18.800781 18.824219 -18.800781 L 1.175781 -18.800781 C 0.847656 -18.800781 0.585938 -18.542969 0.585938 -18.214844 L 0.585938 -0.585938 C 0.585938 -0.257812 0.871094 0 1.199219 0 Z M 1.199219 0 "/></g></g></g><g fill="#ffffff" fill-opacity="1"><g transform="translate(130.529896, 91.07868)"><g><path d="M 1.175781 0 L 7.050781 0 C 7.378906 0 7.636719 -0.28125 7.636719 -0.609375 L 7.636719 -6.109375 C 7.636719 -6.441406 7.898438 -6.699219 8.226562 -6.699219 L 11.75 -6.699219 C 12.082031 -6.699219 12.339844 -6.441406 12.339844 -6.109375 L 12.339844 -0.585938 C 12.339844 -0.257812 12.597656 0 12.925781 0 L 18.800781 0 C 19.132812 0 19.390625 -0.28125 19.390625 -0.609375 L 19.390625 -6.417969 C 19.390625 -7.804688 18.378906 -8.8125 16.992188 -8.8125 L 16.78125 -8.8125 C 16.453125 -8.8125 16.195312 -9.070312 16.195312 -9.402344 C 16.195312 -9.730469 16.453125 -9.988281 16.78125 -9.988281 L 16.992188 -9.988281 C 18.378906 -9.988281 19.390625 -11 19.390625 -12.386719 L 19.390625 -14.972656 C 19.390625 -17.179688 17.769531 -18.800781 15.558594 -18.800781 L 1.175781 -18.800781 C 0.847656 -18.800781 0.585938 -18.542969 0.585938 -18.214844 L 0.585938 -0.585938 C 0.585938 -0.257812 0.847656 0 1.175781 0 Z M 8.226562 -12.105469 C 7.898438 -12.105469 7.636719 -12.363281 7.636719 -12.691406 C 7.636719 -13.019531 7.898438 -13.277344 8.226562 -13.277344 L 11.75 -13.277344 C 12.082031 -13.277344 12.339844 -13.019531 12.339844 -12.691406 C 12.339844 -12.363281 12.082031 -12.105469 11.75 -12.105469 Z M 8.226562 -12.105469 "/></g></g></g></svg>