<svg xmlns="http://www.w3.org/2000/svg" xmlns:xlink="http://www.w3.org/1999/xlink" width="250" zoomAndPan="magnify" viewBox="0 0 187.5 149.999998" height="200" preserveAspectRatio="xMidYMid meet" version="1.0"><defs><g/><clipPath id="a1944d207a"><path d="M 116 106 L 144 106 L 144 132.574219 L 116 132.574219 Z M 116 106 " clip-rule="nonzero"/></clipPath><clipPath id="999b11bd4d"><path d="M 19 17.378906 L 52 17.378906 L 52 50 L 19 50 Z M 19 17.378906 " clip-rule="nonzero"/></clipPath><clipPath id="c8a86f36a3"><path d="M 59 17.378906 L 77 17.378906 L 77 35 L 59 35 Z M 59 17.378906 " clip-rule="nonzero"/></clipPath></defs><path fill="#ff2e9f" d="M 132.53125 47.429688 C 122.355469 37.25 105.855469 37.25 95.679688 47.429688 L 93.289062 49.816406 L 90.898438 47.429688 C 80.722656 37.25 64.222656 37.25 54.042969 47.429688 C 43.867188 57.605469 43.867188 74.105469 54.042969 84.28125 L 56.4375 86.671875 L 93.289062 123.523438 L 132.53125 84.28125 C 142.710938 74.105469 142.710938 57.605469 132.53125 47.429688 " fill-opacity="1" fill-rule="nonzero"/><g clip-path="url(#a1944d207a)"><path fill="#ff2e9f" d="M 143.042969 119.351562 C 135.714844 119.351562 129.773438 113.410156 129.773438 106.085938 C 129.773438 113.410156 123.832031 119.351562 116.507812 119.351562 C 123.832031 119.351562 129.773438 125.292969 129.773438 132.621094 C 129.773438 125.292969 135.714844 119.351562 143.042969 119.351562 " fill-opacity="1" fill-rule="nonzero"/></g><g clip-path="url(#999b11bd4d)"><path fill="#ff2e9f" d="M 51.105469 33.363281 C 42.28125 33.363281 35.125 26.207031 35.125 17.378906 C 35.125 26.207031 27.96875 33.363281 19.144531 33.363281 C 27.96875 33.363281 35.125 40.515625 35.125 49.34375 C 35.125 40.515625 42.28125 33.363281 51.105469 33.363281 " fill-opacity="1" fill-rule="nonzero"/></g><path fill="#ff2e9f" d="M 174.957031 100.96875 C 165.832031 100.96875 158.433594 93.574219 158.433594 84.445312 C 158.433594 93.574219 151.035156 100.96875 141.910156 100.96875 C 151.035156 100.96875 158.433594 108.367188 158.433594 117.492188 C 158.433594 108.367188 165.832031 100.96875 174.957031 100.96875 " fill-opacity="1" fill-rule="nonzero"/><path fill="#ff2e9f" d="M 30.300781 66.644531 C 22.972656 66.644531 17.035156 60.703125 17.035156 53.375 C 17.035156 60.703125 11.09375 66.644531 3.765625 66.644531 C 11.09375 66.644531 17.035156 72.582031 17.035156 79.910156 C 17.035156 72.582031 22.972656 66.644531 30.300781 66.644531 " fill-opacity="1" fill-rule="nonzero"/><g clip-path="url(#c8a86f36a3)"><path fill="#ff2e9f" d="M 76.398438 26.050781 C 71.609375 26.050781 67.726562 22.167969 67.726562 17.378906 C 67.726562 22.167969 63.847656 26.050781 59.058594 26.050781 C 63.847656 26.050781 67.726562 29.933594 67.726562 34.71875 C 67.726562 29.933594 71.609375 26.050781 76.398438 26.050781 " fill-opacity="1" fill-rule="nonzero"/></g><path fill="#ff2e9f" d="M 75.960938 106.195312 C 45.542969 113.148438 21.921875 113.011719 19.371094 104.890625 C 17.304688 98.324219 29.535156 88.15625 49.585938 78.320312 C 49.125 77.472656 48.710938 76.605469 48.347656 75.726562 C 18.886719 88.566406 0.015625 102.132812 2.546875 110.179688 C 5.535156 119.695312 37.503906 118.417969 77.871094 108.105469 L 75.960938 106.195312 " fill-opacity="1" fill-rule="nonzero"/><path fill="#ff2e9f" d="M 184.03125 53.144531 C 181.714844 45.773438 162.019531 44.878906 134.5 49.636719 C 135.289062 50.625 135.996094 51.65625 136.617188 52.722656 C 153.699219 51.035156 165.449219 52.839844 167.210938 58.429688 C 169.585938 65.992188 153.027344 78.320312 127.386719 89.425781 L 123.023438 93.792969 C 160.972656 79.324219 186.972656 62.5 184.03125 53.144531 " fill-opacity="1" fill-rule="nonzero"/><path stroke-linecap="butt" transform="matrix(0.872694, -0.0590945, 0.0590945, 0.872694, 9.126923, 57.918989)" fill="none" stroke-linejoin="miter" d="M 29.1061 22.998388 C 28.926969 22.999686 28.76573 22.935055 28.617928 22.804192 C 28.474884 22.669175 28.404941 22.512252 28.403944 22.328666 L 28.40329 2.177298 C 28.403199 1.980344 28.472286 1.819408 28.606096 1.694186 C 28.744663 1.564811 28.900982 1.503778 29.080113 1.50248 L 40.476098 1.504274 C 40.668596 1.503881 40.834592 1.564358 40.964571 1.694014 C 41.103763 1.819817 41.168949 1.980894 41.16904 2.177848 L 41.169572 5.937793 C 41.17087 6.116924 41.236358 6.273546 41.366035 6.407657 C 41.500168 6.54207 41.661407 6.606702 41.840538 6.605403 C 42.037492 6.605312 42.198569 6.540126 42.323769 6.409845 C 42.449271 6.275109 42.5136 6.118326 42.512302 5.939195 L 42.514416 2.206285 C 42.514324 2.009331 42.579257 1.843637 42.709516 1.704747 C 42.848385 1.570916 43.005308 1.500972 43.184137 1.50413 L 54.580424 1.501468 C 54.772922 1.501074 54.938616 1.566007 55.068897 1.691208 C 55.207787 1.821467 55.272973 1.982544 55.273064 2.179498 L 55.273718 22.330865 C 55.275016 22.509996 55.210687 22.666779 55.085185 22.801515 C 54.959683 22.936252 54.803062 23.001739 54.606108 23.001831 L 47.914436 23.000788 C 47.735304 23.002086 47.569912 22.932698 47.426566 22.802137 C 47.287977 22.667422 47.218034 22.510499 47.216736 22.331368 L 47.216445 10.371256 C 47.216353 10.174302 47.155623 10.013527 47.025342 9.888327 C 46.899819 9.758973 46.73858 9.694341 46.541627 9.694433 C 46.362495 9.695731 46.205874 9.761219 46.067609 9.886139 C 45.938255 10.011662 45.873623 10.172901 45.873715 10.369854 L 45.874841 22.383736 C 45.871684 22.562565 45.803502 22.710135 45.669994 22.830901 C 45.532634 22.942454 45.376616 22.99903 45.197485 23.000329 L 38.478776 23.001931 C 38.299947 22.998774 38.142561 22.943356 38.006919 22.831221 C 37.876337 22.710477 37.810246 22.562767 37.808947 22.383635 L 37.812277 10.370056 C 37.812185 10.173102 37.746999 10.012025 37.621174 9.887126 C 37.500107 9.758074 37.338566 9.697898 37.141613 9.69799 C 36.962783 9.694833 36.806162 9.76032 36.667896 9.88524 C 36.533785 10.014917 36.464698 10.175854 36.46479 10.372808 L 36.465081 22.33292 C 36.466379 22.512051 36.402049 22.668834 36.276548 22.80357 C 36.151347 22.933851 35.994726 22.999339 35.797772 22.99943 Z M 57.309692 23.001385 C 57.126407 22.997926 56.965168 22.933295 56.821823 22.802734 C 56.678778 22.667717 56.604379 22.510492 56.607537 22.331663 L 56.606883 2.180296 C 56.606791 1.983342 56.671724 1.817648 56.80999 1.692728 C 56.943799 1.567506 57.100421 1.502018 57.279552 1.50072 L 77.462109 1.502178 C 77.659063 1.502087 77.815845 1.566416 77.937215 1.691013 C 78.067194 1.820669 78.127924 1.981444 78.128016 2.178398 L 78.127146 7.281073 C 78.128444 7.460204 78.064115 7.616987 77.938311 7.756179 C 77.817567 7.886761 77.65649 7.951947 77.459536 7.952039 L 65.342873 7.950681 C 65.163742 7.951979 65.007422 8.013012 64.873311 8.142689 C 64.735045 8.267609 64.665958 8.428545 64.66605 8.625499 C 64.667348 8.80463 64.737292 8.961553 64.871123 9.100422 C 65.005557 9.23038 65.16234 9.294709 65.345625 9.298168 L 76.356915 9.296293 C 76.553869 9.296201 76.719563 9.361134 76.849844 9.486334 C 76.984882 9.607381 77.054523 9.768759 77.054615 9.965713 L 77.054004 14.535752 C 77.055302 14.714883 76.990671 14.876122 76.865169 15.010858 C 76.739969 15.141139 76.583348 15.206626 76.386394 15.206718 L 65.343915 15.206481 C 65.164784 15.20778 65.008464 15.268812 64.869897 15.398187 C 64.736087 15.523409 64.667 15.684346 64.667092 15.881299 C 64.66839 16.060431 64.733878 16.217052 64.872165 16.356222 C 65.006599 16.48618 65.163382 16.550509 65.342513 16.549211 L 77.432141 16.553214 C 77.629095 16.553123 77.795091 16.6136 77.92507 16.743256 C 78.060108 16.864302 78.129749 17.025681 78.129841 17.222634 L 78.128669 22.329765 C 78.129968 22.508896 78.065638 22.665679 77.939835 22.804871 C 77.814635 22.935152 77.658013 23.00064 77.461059 23.000731 Z M 80.164643 23.000285 C 79.985512 23.001583 79.824575 22.932496 79.68123 22.801936 C 79.53373 22.666617 79.463786 22.509694 79.462488 22.330563 L 79.463055 6.986591 C 79.462969 5.93023 79.701307 4.988487 80.17331 4.165517 C 80.65007 3.338393 81.298349 2.688499 82.118146 2.215833 C 82.947156 1.739316 83.889691 1.503242 84.946052 1.503157 L 91.449682 1.504894 C 92.506044 1.504809 93.447786 1.743146 94.270455 2.219605 C 95.093425 2.691608 95.743319 3.339887 96.215682 4.16414 C 96.692502 4.988694 96.933333 5.927075 96.933117 6.987892 L 96.93255 22.331864 C 96.933848 22.510995 96.869518 22.667778 96.744017 22.802514 C 96.614361 22.932493 96.452982 23.002135 96.25633 22.997771 L 89.564356 23.001184 C 89.389982 22.998328 89.233199 22.933998 89.085397 22.803136 C 88.942353 22.668119 88.867954 22.510895 88.871111 22.332065 L 88.869373 18.589942 C 88.869281 18.392989 88.808551 18.232213 88.678874 18.098102 C 88.558108 17.964594 88.397171 17.895507 88.200217 17.895599 C 88.021086 17.896897 87.864766 17.957929 87.730655 18.087606 C 87.592691 18.20807 87.523604 18.369007 87.523696 18.565961 L 87.523926 22.330362 C 87.525224 22.509493 87.460895 22.666276 87.335393 22.801012 C 87.214347 22.93605 87.05327 23.001236 86.856316 23.001328 Z M 88.20279 11.445738 C 88.399744 11.445646 88.556365 11.380159 88.681867 11.245422 C 88.807369 11.110686 88.872 10.949448 88.870702 10.770316 L 88.868187 8.626103 C 88.868095 8.429149 88.807365 8.268374 88.68154 8.143475 C 88.556016 8.014121 88.399234 7.949792 88.20228 7.949883 C 88.023149 7.951181 87.862072 8.016367 87.728262 8.141589 C 87.594452 8.266811 87.525064 8.432203 87.525457 8.624701 L 87.523215 10.773069 C 87.524513 10.9522 87.594456 11.109123 87.728589 11.243536 C 87.862722 11.377949 88.023659 11.447036 88.20279 11.445738 Z M 103.749185 22.999353 C 102.688368 22.999137 101.746324 22.765255 100.923354 22.293252 C 100.100685 21.816793 99.451092 21.164059 98.973972 20.34396 C 98.50191 19.515251 98.265836 18.572717 98.265751 17.516355 L 98.26248 6.988388 C 98.262695 5.927571 98.500731 4.990284 98.972734 4.167314 C 99.449495 3.34019 100.097774 2.690296 100.922026 2.217932 C 101.746581 1.741113 102.689417 1.500584 103.750234 1.5008 L 115.056804 1.501015 C 115.253758 1.500923 115.414996 1.565555 115.544975 1.69521 C 115.6708 1.820109 115.735986 1.981186 115.736078 2.17814 L 115.735876 8.064174 C 115.732718 8.243004 115.672543 8.404544 115.541982 8.54789 C 115.416178 8.687082 115.2548 8.756724 115.057846 8.756815 L 107.000863 8.757318 C 106.821732 8.758616 106.665413 8.819648 106.531301 8.949326 C 106.393338 9.06979 106.328706 9.231028 106.328496 9.432438 L 106.326764 15.076661 C 106.328062 15.255792 106.39355 15.412413 106.532139 15.547128 C 106.666573 15.677085 106.823054 15.745871 107.002186 15.744572 C 107.181317 15.743274 107.337938 15.677786 107.467594 15.547807 C 107.602007 15.413674 107.671094 15.252737 107.669796 15.073606 L 107.699807 10.796504 C 107.699716 10.59955 107.764347 10.438311 107.903216 10.30448 C 108.037629 10.170347 108.189795 10.104558 108.368926 10.10326 L 115.056143 10.104001 C 115.253096 10.103909 115.423548 10.164688 115.557983 10.294646 C 115.693021 10.415692 115.758207 10.576769 115.758298 10.773723 L 115.734086 22.302471 C 115.735384 22.481603 115.666599 22.638084 115.531281 22.785584 C 115.396264 22.928628 115.239341 22.998571 115.06021 22.999869 Z M 117.794984 23.001535 C 117.616154 22.998378 117.454916 22.933747 117.31157 22.803186 C 117.16407 22.667868 117.094127 22.510945 117.092828 22.331814 L 117.093395 6.987841 C 117.093611 5.927024 117.327191 4.989436 117.799194 4.166466 C 118.275955 3.339342 118.928689 2.689749 119.748486 2.217084 C 120.577496 1.740567 121.520031 1.504493 122.576393 1.504407 L 129.080324 1.501689 C 130.136686 1.501603 131.078428 1.739941 131.901096 2.2164 C 132.724067 2.688403 133.373659 3.341137 133.846023 4.16539 C 134.322842 4.989944 134.563673 5.928325 134.563457 6.989142 L 134.56289 22.333114 C 134.564188 22.512246 134.499859 22.669028 134.369901 22.803463 C 134.244701 22.933744 134.083624 22.99893 133.88667 22.999021 L 127.194998 22.997978 C 127.020322 22.999578 126.859083 22.934947 126.715738 22.804386 C 126.572693 22.66937 126.498294 22.512145 126.501753 22.32886 L 126.499713 18.591193 C 126.499622 18.394239 126.434737 18.228706 126.309214 18.099352 C 126.188448 17.965844 126.027511 17.896757 125.830557 17.896849 C 125.651426 17.898147 125.495107 17.959179 125.35654 18.088555 C 125.223032 18.209321 125.153945 18.370258 125.154036 18.567211 L 125.154266 22.331612 C 125.155565 22.510744 125.091235 22.667526 124.965733 22.802263 C 124.840533 22.932543 124.683912 22.998031 124.486958 22.998123 Z M 125.83313 11.446988 C 126.025628 11.446595 126.186705 11.381409 126.307752 11.246371 C 126.438011 11.107481 126.497885 10.950396 126.501042 10.771567 L 126.498527 8.627353 C 126.498435 8.430399 126.437705 8.269624 126.307726 8.139968 C 126.186357 8.015372 126.029574 7.951042 125.83262 7.951133 C 125.653489 7.952432 125.492714 8.013162 125.358602 8.142839 C 125.224792 8.268061 125.155705 8.428998 125.155797 8.625952 L 125.153856 10.769864 C 125.154853 10.953451 125.224797 11.110374 125.358929 11.244787 C 125.493062 11.3792 125.649543 11.447985 125.83313 11.446988 Z M 136.59471 22.998877 C 136.415579 23.000175 136.25434 22.935544 136.110994 22.804983 C 135.968252 22.665511 135.893853 22.508286 135.892554 22.329155 L 135.896356 2.178089 C 135.896265 1.981135 135.960896 1.819897 136.099161 1.694977 C 136.233273 1.5653 136.389592 1.504268 136.568724 1.502969 L 151.317379 1.503509 C 151.518788 1.50372 151.685387 1.555286 151.816573 1.667119 C 151.952818 1.770342 152.018004 1.931419 152.021043 2.150953 L 152.02052 14.321386 C 152.017363 14.500215 152.08285 14.656837 152.216983 14.79125 C 152.351116 14.925663 152.507899 14.989992 152.68703 14.988694 C 152.883984 14.988603 153.045061 14.923416 153.174717 14.793438 C 153.300219 14.658701 153.364548 14.501918 153.36325 14.322787 L 153.361962 2.179088 C 153.361871 1.982135 153.430958 1.821198 153.560613 1.691219 C 153.694423 1.565997 153.8555 1.500811 154.034329 1.503969 L 160.748582 1.502064 C 160.945536 1.501973 161.106774 1.566604 161.237055 1.691804 C 161.362578 1.821158 161.427764 1.982235 161.427856 2.179189 L 161.424054 22.330255 C 161.425352 22.509386 161.361023 22.666169 161.235219 22.805361 C 161.110019 22.935641 160.948942 23.000827 160.751988 23.000919 L 145.998878 23.000077 C 145.801924 23.000169 145.635626 22.944147 145.500287 22.827556 C 145.364947 22.710966 145.299459 22.554345 145.299368 22.357391 L 145.300887 10.370545 C 145.300795 10.173591 145.240065 10.012816 145.109784 9.887616 C 144.988717 9.758563 144.827478 9.693932 144.630524 9.694024 C 144.451393 9.695322 144.294772 9.76081 144.160962 9.886031 C 144.022697 10.010951 143.957764 10.176645 143.957855 10.373599 L 143.958448 22.329255 C 143.955291 22.508085 143.895115 22.669625 143.765158 22.80406 C 143.644413 22.934642 143.483336 22.999828 143.286382 22.99992 Z M 136.59471 22.998877 " stroke="#ff2e9f" stroke-width="4.669045" stroke-opacity="1" stroke-miterlimit="4"/><path stroke-linecap="butt" transform="matrix(0.872694, -0.0590945, 0.0590945, 0.872694, 9.126923, 57.918989)" fill="none" stroke-linejoin="miter" d="M 32.452725 48.998287 C 32.273593 48.999585 32.116811 48.935256 31.982376 48.805298 C 31.848545 48.66643 31.778601 48.509507 31.777303 48.330375 L 31.776649 28.179008 C 31.776558 27.982054 31.8501 27.821419 31.993123 27.692345 C 32.1403 27.568029 32.301377 27.502843 32.480508 27.501545 L 39.17218 27.502587 C 39.369134 27.502496 39.525917 27.566825 39.651742 27.691724 C 39.777265 27.821078 39.842451 27.982155 39.842543 28.179109 L 39.842996 40.269038 C 39.839838 40.447867 39.909782 40.60479 40.043915 40.739204 C 40.178047 40.873617 40.339286 40.938248 40.518417 40.93695 C 40.715371 40.936858 40.871992 40.87137 40.997192 40.74109 C 41.122694 40.606353 41.187024 40.44957 41.185725 40.270439 L 41.185041 28.117829 C 41.183743 27.938698 41.251623 27.795584 41.380373 27.678972 C 41.518035 27.562963 41.674355 27.501931 41.853486 27.500633 L 48.571893 27.503486 C 48.751024 27.502187 48.908109 27.562061 49.043448 27.678652 C 49.178788 27.795242 49.249637 27.938798 49.246479 28.117628 L 49.247163 40.270238 C 49.248462 40.449369 49.31395 40.605991 49.443627 40.740102 C 49.582517 40.870361 49.738998 40.939146 49.918129 40.937848 C 50.115083 40.937757 50.27616 40.87257 50.40136 40.74229 C 50.531619 40.6034 50.591493 40.446315 50.594651 40.267486 L 50.594198 28.177556 C 50.594107 27.980602 50.663193 27.819666 50.801459 27.694746 C 50.948937 27.565974 51.110014 27.500788 51.288844 27.503945 L 57.980516 27.504988 C 58.17747 27.504896 58.334555 27.56477 58.460078 27.694124 C 58.585903 27.819023 58.646633 27.979798 58.646725 28.176752 L 58.647077 48.332575 C 58.648375 48.511706 58.57959 48.668187 58.445177 48.80232 C 58.315521 48.932299 58.149687 49.001639 57.952733 49.00173 L 46.556749 48.999937 C 46.377617 49.001235 46.221438 48.927994 46.087909 48.78467 C 45.954379 48.641345 45.889193 48.480268 45.887593 48.305593 L 45.89003 44.832318 C 45.889637 44.63982 45.824451 44.478743 45.698626 44.353844 C 45.572801 44.228946 45.411562 44.164315 45.214608 44.164406 C 45.035477 44.165704 44.874702 44.226435 44.74059 44.356112 C 44.611538 44.47718 44.542451 44.638116 44.542543 44.83507 L 44.543053 48.330925 C 44.544351 48.510056 44.475566 48.666538 44.340851 48.805126 C 44.211195 48.935105 44.045663 48.999989 43.848709 49.000081 Z M 60.683353 48.998639 C 60.504221 48.999937 60.342983 48.935306 60.195181 48.804443 C 60.052137 48.669427 59.982194 48.512504 59.981197 48.328917 L 59.981764 32.984945 C 59.981679 31.928584 60.21556 30.986539 60.687262 30.168025 C 61.164022 29.340901 61.816757 28.691308 62.636554 28.218643 C 63.465564 27.742126 64.4084 27.501596 65.464762 27.501511 L 71.963936 27.502947 C 73.024753 27.503163 73.966495 27.7415 74.784708 28.217657 C 75.612134 28.689962 76.262028 29.338241 76.73409 30.166949 C 77.211211 30.987048 77.45174 31.929884 77.451826 32.986246 L 77.451259 48.330218 C 77.448101 48.509047 77.388228 48.666132 77.257968 48.805022 C 77.132768 48.935303 76.971691 49.000489 76.774737 49.00058 L 70.083065 48.999537 C 69.908389 49.001138 69.747151 48.936506 69.604107 48.80149 C 69.461062 48.666473 69.386663 48.509248 69.389821 48.330419 L 69.38778 44.592752 C 69.387689 44.395798 69.322805 44.230266 69.197281 44.100911 C 69.076817 43.962948 68.915579 43.898317 68.718625 43.898408 C 68.539795 43.895251 68.383174 43.960739 68.244909 44.085658 C 68.111099 44.21088 68.042314 44.367361 68.042405 44.564315 L 68.042635 48.328716 C 68.043632 48.512303 67.979302 48.669086 67.8538 48.803822 C 67.7286 48.934102 67.571979 48.99959 67.375025 48.999682 Z M 68.716742 37.448246 C 68.913696 37.448154 69.075074 37.378513 69.196121 37.243475 C 69.326078 37.10904 69.385952 36.951955 69.389109 36.773126 L 69.386594 34.628912 C 69.386503 34.431958 69.326074 34.266727 69.195793 34.141527 C 69.074726 34.012475 68.917641 33.952601 68.720687 33.952693 C 68.537402 33.949234 68.380781 34.014721 68.246971 34.139943 C 68.11286 34.26962 68.043773 34.430557 68.043864 34.627511 L 68.041924 36.771423 C 68.043222 36.950554 68.113166 37.107477 68.246997 37.246346 C 68.381129 37.380759 68.537611 37.449544 68.716742 37.448246 Z M 79.456043 48.998626 C 79.276912 48.999924 79.120129 48.935595 78.985996 48.801181 C 78.851863 48.666768 78.78192 48.509845 78.780622 48.330714 L 78.779968 28.179347 C 78.784332 27.982695 78.853419 27.821758 79.000897 27.692986 C 79.143618 27.568368 79.304695 27.503182 79.483826 27.501883 L 86.175499 27.502926 C 86.372453 27.502834 86.53339 27.571921 86.654156 27.705429 C 86.779075 27.843695 86.84396 28.009227 86.844051 28.206181 L 86.845473 41.075014 C 86.846772 41.254146 86.916715 41.411069 87.059759 41.546085 C 87.207561 41.676948 87.368498 41.746035 87.547629 41.744736 L 94.239301 41.745779 C 94.436255 41.745688 94.593038 41.810017 94.718863 41.934916 C 94.84499 42.055358 94.90572 42.216134 94.905812 42.413087 L 94.907953 48.330613 C 94.904796 48.509443 94.844922 48.666528 94.714965 48.800962 C 94.593919 48.936 94.432842 49.001186 94.235888 49.001278 Z M 96.917193 48.999323 C 96.738062 49.000621 96.581279 48.936292 96.442691 48.801577 C 96.308558 48.667164 96.238615 48.510241 96.241772 48.331411 L 96.241118 28.180044 C 96.241027 27.98309 96.314871 27.817999 96.457592 27.693381 C 96.600615 27.564308 96.76139 27.503577 96.940521 27.502279 L 103.632194 27.503322 C 103.829147 27.50323 103.990084 27.572317 104.11085 27.705825 C 104.240527 27.839936 104.30511 28.009925 104.300746 28.206577 L 104.302168 41.07541 C 104.303466 41.254541 104.37341 41.411464 104.52091 41.546783 C 104.664255 41.677343 104.825192 41.74643 105.004323 41.745132 L 111.695996 41.746175 C 111.89295 41.746083 112.05449 41.806259 112.175558 41.935311 C 112.301684 42.055754 112.36687 42.216831 112.366962 42.413785 L 112.364648 48.331009 C 112.365946 48.51014 112.301617 48.666923 112.176115 48.801659 C 112.050613 48.936396 111.893992 49.001883 111.697038 49.001975 Z M 114.400622 49.001529 C 114.221793 48.998372 114.060554 48.93374 113.917208 48.80318 C 113.769708 48.667861 113.699765 48.510938 113.698467 48.331807 L 113.697813 28.18044 C 113.697721 27.983486 113.76711 27.818093 113.90092 27.692872 C 114.039185 27.567952 114.195806 27.502464 114.374937 27.501166 L 134.553039 27.502322 C 134.749993 27.502231 134.911231 27.566862 135.0326 27.691459 C 135.158124 27.820813 135.22331 27.98189 135.223401 28.178844 L 135.222531 33.281519 C 135.22383 33.46065 135.1595 33.617433 135.033697 33.756625 C 134.908497 33.886905 134.751875 33.952393 134.554922 33.952485 L 122.438258 33.951127 C 122.259127 33.952425 122.102808 34.013457 121.96424 34.142833 C 121.830431 34.268055 121.761344 34.428991 121.761435 34.625945 C 121.762734 34.805076 121.828222 34.961698 121.966508 35.100868 C 122.100943 35.230826 122.257726 35.295155 122.436857 35.293857 L 133.452301 35.296739 C 133.649254 35.296647 133.810493 35.361279 133.945229 35.48678 C 134.080267 35.607827 134.145453 35.768903 134.145545 35.965857 L 134.144934 40.535896 C 134.146232 40.715027 134.081601 40.876266 133.956099 41.011002 C 133.835355 41.141584 133.674278 41.206771 133.477324 41.206862 L 122.4393 41.206927 C 122.255714 41.207924 122.099394 41.268956 121.965283 41.398633 C 121.831473 41.523855 121.762386 41.684791 121.762477 41.881745 C 121.763776 42.060877 121.829264 42.217498 121.963095 42.356367 C 122.101985 42.486626 122.258768 42.550955 122.437899 42.549657 L 134.527527 42.55366 C 134.72448 42.553569 134.890476 42.614046 135.020455 42.743702 C 135.155493 42.864748 135.220679 43.025825 135.221072 43.218323 L 135.224055 48.330211 C 135.220898 48.509041 135.161024 48.666125 135.030765 48.805015 C 134.91002 48.935598 134.748943 49.000784 134.551989 49.000875 Z M 137.233295 48.998921 C 137.054164 49.000219 136.897381 48.935889 136.758792 48.801175 C 136.62466 48.666762 136.554716 48.509838 136.557873 48.331009 L 136.55722 28.179642 C 136.557128 27.982688 136.626215 27.821751 136.760327 27.692074 C 136.894136 27.566852 137.055213 27.501666 137.234043 27.504824 L 153.679234 27.503866 C 154.516363 27.502364 155.268927 27.692082 155.928315 28.067963 C 156.592158 28.444145 157.112074 28.962768 157.48776 29.628287 C 157.863748 30.289351 158.05457 31.040826 158.055469 31.886867 L 158.052688 34.836417 C 158.052752 35.628688 157.793624 36.282553 157.274699 36.806924 C 156.756378 37.322384 156.10346 37.578069 155.311189 37.578134 L 155.073833 37.579966 C 154.895003 37.576808 154.738382 37.642296 154.604572 37.767518 C 154.466005 37.896893 154.401374 38.058132 154.401465 38.255085 C 154.398308 38.433915 154.468252 38.590838 154.602384 38.725251 C 154.740973 38.859966 154.897756 38.924295 155.076887 38.922997 L 155.309486 38.925319 C 156.101757 38.925255 156.755622 39.184383 157.275538 39.703007 C 157.795152 40.226085 158.055293 40.879304 158.055659 41.66712 L 158.053781 48.305023 C 158.055381 48.479698 157.99075 48.640937 157.864644 48.784584 C 157.742995 48.928534 157.581616 48.998175 157.384662 48.998267 L 150.665954 48.999869 C 150.486823 49.001168 150.330342 48.932383 150.195907 48.802425 C 150.057319 48.66771 149.991831 48.511089 149.990533 48.331958 L 149.993267 42.011915 C 149.993175 41.814961 149.927688 41.658339 149.801863 41.533441 C 149.680493 41.408844 149.519255 41.344213 149.322301 41.344305 L 145.29381 41.344556 C 145.114679 41.345854 144.958359 41.406887 144.824248 41.536564 C 144.686284 41.657028 144.617197 41.817965 144.617289 42.014919 L 144.621122 48.304074 C 144.618266 48.478448 144.553635 48.639686 144.42753 48.783334 C 144.30588 48.927283 144.148655 49.001682 143.951702 49.001774 Z M 145.296102 35.163241 L 149.324594 35.16299 C 149.521547 35.162899 149.678169 35.097411 149.799215 34.962373 C 149.929172 34.827938 149.993804 34.6667 149.992505 34.487568 C 149.992414 34.290615 149.926926 34.133993 149.801101 34.009095 C 149.679732 33.884498 149.518493 33.819867 149.321539 33.819958 L 145.293048 33.82021 C 145.113917 33.821508 144.957597 33.88254 144.823486 34.012218 C 144.685522 34.132682 144.620891 34.29392 144.620982 34.490874 C 144.617825 34.669704 144.687769 34.826627 144.821901 34.96104 C 144.956034 35.095453 145.116971 35.16454 145.296102 35.163241 Z M 145.296102 35.163241 " stroke="#ff2e9f" stroke-width="4.669045" stroke-opacity="1" stroke-miterlimit="4"/><g fill="#ffffff" fill-opacity="1"><g transform="translate(34.689718, 76.352)"><g><path d="M 1.203125 -0.078125 C 1.046875 -0.0664062 0.898438 -0.117188 0.765625 -0.234375 C 0.628906 -0.347656 0.554688 -0.484375 0.546875 -0.640625 L -0.640625 -18.21875 C -0.648438 -18.382812 -0.597656 -18.523438 -0.484375 -18.640625 C -0.378906 -18.753906 -0.25 -18.816406 -0.09375 -18.828125 L 9.84375 -19.5 C 10.007812 -19.507812 10.15625 -19.460938 10.28125 -19.359375 C 10.40625 -19.265625 10.472656 -19.132812 10.484375 -18.96875 L 10.703125 -15.6875 C 10.722656 -15.53125 10.796875 -15.394531 10.921875 -15.28125 C 11.046875 -15.164062 11.1875 -15.113281 11.34375 -15.125 C 11.507812 -15.132812 11.644531 -15.203125 11.75 -15.328125 C 11.851562 -15.460938 11.894531 -15.609375 11.875 -15.765625 L 11.65625 -19.015625 C 11.644531 -19.191406 11.695312 -19.335938 11.8125 -19.453125 C 11.925781 -19.578125 12.0625 -19.644531 12.21875 -19.65625 L 22.15625 -20.328125 C 22.332031 -20.347656 22.476562 -20.304688 22.59375 -20.203125 C 22.71875 -20.097656 22.785156 -19.960938 22.796875 -19.796875 L 23.984375 -2.21875 C 23.992188 -2.0625 23.953125 -1.921875 23.859375 -1.796875 C 23.765625 -1.671875 23.628906 -1.601562 23.453125 -1.59375 L 17.609375 -1.1875 C 17.441406 -1.175781 17.289062 -1.226562 17.15625 -1.34375 C 17.03125 -1.457031 16.960938 -1.59375 16.953125 -1.75 L 16.25 -12.171875 C 16.238281 -12.335938 16.175781 -12.46875 16.0625 -12.5625 C 15.945312 -12.664062 15.804688 -12.710938 15.640625 -12.703125 C 15.484375 -12.691406 15.347656 -12.628906 15.234375 -12.515625 C 15.117188 -12.398438 15.066406 -12.257812 15.078125 -12.09375 L 15.796875 -1.625 C 15.804688 -1.46875 15.753906 -1.332031 15.640625 -1.21875 C 15.535156 -1.101562 15.40625 -1.039062 15.25 -1.03125 L 9.390625 -0.640625 C 9.234375 -0.628906 9.09375 -0.671875 8.96875 -0.765625 C 8.84375 -0.859375 8.773438 -0.984375 8.765625 -1.140625 L 8.046875 -11.609375 C 8.035156 -11.773438 7.972656 -11.910156 7.859375 -12.015625 C 7.742188 -12.117188 7.597656 -12.164062 7.421875 -12.15625 C 7.265625 -12.144531 7.128906 -12.078125 7.015625 -11.953125 C 6.910156 -11.835938 6.863281 -11.695312 6.875 -11.53125 L 7.578125 -1.109375 C 7.585938 -0.953125 7.539062 -0.8125 7.4375 -0.6875 C 7.34375 -0.5625 7.207031 -0.488281 7.03125 -0.46875 Z M 1.203125 -0.078125 "/></g></g></g><g fill="#ffffff" fill-opacity="1"><g transform="translate(59.301655, 74.685401)"><g><path d="M 1.203125 -0.078125 C 1.046875 -0.0664062 0.898438 -0.117188 0.765625 -0.234375 C 0.628906 -0.347656 0.554688 -0.484375 0.546875 -0.640625 L -0.640625 -18.21875 C -0.648438 -18.382812 -0.597656 -18.523438 -0.484375 -18.640625 C -0.378906 -18.753906 -0.25 -18.816406 -0.09375 -18.828125 L 17.515625 -20.015625 C 17.679688 -20.023438 17.820312 -19.976562 17.9375 -19.875 C 18.050781 -19.78125 18.113281 -19.648438 18.125 -19.484375 L 18.4375 -15.03125 C 18.445312 -14.875 18.398438 -14.726562 18.296875 -14.59375 C 18.191406 -14.46875 18.054688 -14.398438 17.890625 -14.390625 L 7.3125 -13.6875 C 7.15625 -13.675781 7.023438 -13.609375 6.921875 -13.484375 C 6.816406 -13.367188 6.769531 -13.226562 6.78125 -13.0625 C 6.789062 -12.90625 6.851562 -12.769531 6.96875 -12.65625 C 7.09375 -12.550781 7.234375 -12.503906 7.390625 -12.515625 L 17 -13.15625 C 17.175781 -13.164062 17.328125 -13.117188 17.453125 -13.015625 C 17.578125 -12.921875 17.644531 -12.785156 17.65625 -12.609375 L 17.921875 -8.640625 C 17.929688 -8.484375 17.882812 -8.335938 17.78125 -8.203125 C 17.6875 -8.078125 17.554688 -8.007812 17.390625 -8 L 7.75 -7.359375 C 7.59375 -7.347656 7.457031 -7.28125 7.34375 -7.15625 C 7.238281 -7.039062 7.191406 -6.898438 7.203125 -6.734375 C 7.210938 -6.578125 7.28125 -6.441406 7.40625 -6.328125 C 7.53125 -6.222656 7.671875 -6.175781 7.828125 -6.1875 L 18.375 -6.890625 C 18.550781 -6.898438 18.695312 -6.851562 18.8125 -6.75 C 18.9375 -6.65625 19.003906 -6.519531 19.015625 -6.34375 L 19.3125 -1.90625 C 19.320312 -1.75 19.273438 -1.601562 19.171875 -1.46875 C 19.078125 -1.34375 18.945312 -1.273438 18.78125 -1.265625 Z M 1.203125 -0.078125 "/></g></g></g><g fill="#ffffff" fill-opacity="1"><g transform="translate(79.249042, 73.334662)"><g><path d="M 1.203125 -0.078125 C 1.046875 -0.0664062 0.898438 -0.117188 0.765625 -0.234375 C 0.628906 -0.347656 0.554688 -0.484375 0.546875 -0.640625 L -0.359375 -14.015625 C -0.421875 -14.941406 -0.269531 -15.773438 0.09375 -16.515625 C 0.457031 -17.253906 0.984375 -17.851562 1.671875 -18.3125 C 2.367188 -18.78125 3.175781 -19.046875 4.09375 -19.109375 L 9.765625 -19.5 C 10.691406 -19.5625 11.523438 -19.40625 12.265625 -19.03125 C 13.015625 -18.664062 13.617188 -18.140625 14.078125 -17.453125 C 14.546875 -16.773438 14.8125 -15.972656 14.875 -15.046875 L 15.78125 -1.671875 C 15.789062 -1.515625 15.742188 -1.367188 15.640625 -1.234375 C 15.546875 -1.109375 15.414062 -1.039062 15.25 -1.03125 L 9.40625 -0.640625 C 9.25 -0.628906 9.101562 -0.675781 8.96875 -0.78125 C 8.832031 -0.894531 8.757812 -1.03125 8.75 -1.1875 L 8.53125 -4.4375 C 8.519531 -4.601562 8.457031 -4.742188 8.34375 -4.859375 C 8.226562 -4.972656 8.082031 -5.023438 7.90625 -5.015625 C 7.75 -5.003906 7.613281 -4.9375 7.5 -4.8125 C 7.394531 -4.695312 7.347656 -4.550781 7.359375 -4.375 L 7.578125 -1.109375 C 7.585938 -0.953125 7.539062 -0.8125 7.4375 -0.6875 C 7.34375 -0.5625 7.207031 -0.488281 7.03125 -0.46875 Z M 7.515625 -10.65625 C 7.691406 -10.664062 7.832031 -10.726562 7.9375 -10.84375 C 8.039062 -10.957031 8.085938 -11.09375 8.078125 -11.25 L 7.953125 -13.140625 C 7.941406 -13.304688 7.875 -13.441406 7.75 -13.546875 C 7.632812 -13.648438 7.488281 -13.695312 7.3125 -13.6875 C 7.15625 -13.675781 7.023438 -13.609375 6.921875 -13.484375 C 6.816406 -13.367188 6.769531 -13.226562 6.78125 -13.0625 L 6.90625 -11.171875 C 6.914062 -11.015625 6.976562 -10.882812 7.09375 -10.78125 C 7.21875 -10.6875 7.359375 -10.644531 7.515625 -10.65625 Z M 7.515625 -10.65625 "/></g></g></g><g fill="#ffffff" fill-opacity="1"><g transform="translate(95.656996, 72.223596)"><g><path d="M 5.359375 -0.359375 C 4.441406 -0.296875 3.609375 -0.445312 2.859375 -0.8125 C 2.117188 -1.1875 1.515625 -1.71875 1.046875 -2.40625 C 0.585938 -3.101562 0.328125 -3.910156 0.265625 -4.828125 L -0.359375 -14.015625 C -0.421875 -14.941406 -0.269531 -15.773438 0.09375 -16.515625 C 0.457031 -17.253906 0.984375 -17.851562 1.671875 -18.3125 C 2.367188 -18.78125 3.175781 -19.046875 4.09375 -19.109375 L 13.984375 -19.78125 C 14.148438 -19.789062 14.289062 -19.742188 14.40625 -19.640625 C 14.519531 -19.546875 14.582031 -19.414062 14.59375 -19.25 L 14.953125 -14.109375 C 14.960938 -13.953125 14.914062 -13.804688 14.8125 -13.671875 C 14.707031 -13.535156 14.570312 -13.460938 14.40625 -13.453125 L 7.359375 -12.984375 C 7.203125 -12.972656 7.070312 -12.90625 6.96875 -12.78125 C 6.863281 -12.664062 6.816406 -12.523438 6.828125 -12.359375 L 7.15625 -7.4375 C 7.164062 -7.28125 7.234375 -7.144531 7.359375 -7.03125 C 7.484375 -6.925781 7.625 -6.878906 7.78125 -6.890625 C 7.9375 -6.898438 8.066406 -6.96875 8.171875 -7.09375 C 8.285156 -7.21875 8.335938 -7.359375 8.328125 -7.515625 L 8.109375 -11.234375 C 8.097656 -11.398438 8.144531 -11.546875 8.25 -11.671875 C 8.351562 -11.804688 8.484375 -11.878906 8.640625 -11.890625 L 14.484375 -12.28125 C 14.648438 -12.289062 14.796875 -12.242188 14.921875 -12.140625 C 15.054688 -12.046875 15.128906 -11.910156 15.140625 -11.734375 L 15.78125 -1.6875 C 15.789062 -1.53125 15.742188 -1.382812 15.640625 -1.25 C 15.535156 -1.113281 15.40625 -1.039062 15.25 -1.03125 Z M 5.359375 -0.359375 "/></g></g></g><g fill="#ffffff" fill-opacity="1"><g transform="translate(112.088386, 71.110943)"><g><path d="M 1.203125 -0.078125 C 1.046875 -0.0664062 0.898438 -0.117188 0.765625 -0.234375 C 0.628906 -0.347656 0.554688 -0.484375 0.546875 -0.640625 L -0.359375 -14.015625 C -0.421875 -14.941406 -0.269531 -15.773438 0.09375 -16.515625 C 0.457031 -17.253906 0.984375 -17.851562 1.671875 -18.3125 C 2.367188 -18.78125 3.175781 -19.046875 4.09375 -19.109375 L 9.765625 -19.5 C 10.691406 -19.5625 11.523438 -19.40625 12.265625 -19.03125 C 13.015625 -18.664062 13.617188 -18.140625 14.078125 -17.453125 C 14.546875 -16.773438 14.8125 -15.972656 14.875 -15.046875 L 15.78125 -1.671875 C 15.789062 -1.515625 15.742188 -1.367188 15.640625 -1.234375 C 15.546875 -1.109375 15.414062 -1.039062 15.25 -1.03125 L 9.40625 -0.640625 C 9.25 -0.628906 9.101562 -0.675781 8.96875 -0.78125 C 8.832031 -0.894531 8.757812 -1.03125 8.75 -1.1875 L 8.53125 -4.4375 C 8.519531 -4.601562 8.457031 -4.742188 8.34375 -4.859375 C 8.226562 -4.972656 8.082031 -5.023438 7.90625 -5.015625 C 7.75 -5.003906 7.613281 -4.9375 7.5 -4.8125 C 7.394531 -4.695312 7.347656 -4.550781 7.359375 -4.375 L 7.578125 -1.109375 C 7.585938 -0.953125 7.539062 -0.8125 7.4375 -0.6875 C 7.34375 -0.5625 7.207031 -0.488281 7.03125 -0.46875 Z M 7.515625 -10.65625 C 7.691406 -10.664062 7.832031 -10.726562 7.9375 -10.84375 C 8.039062 -10.957031 8.085938 -11.09375 8.078125 -11.25 L 7.953125 -13.140625 C 7.941406 -13.304688 7.875 -13.441406 7.75 -13.546875 C 7.632812 -13.648438 7.488281 -13.695312 7.3125 -13.6875 C 7.15625 -13.675781 7.023438 -13.609375 6.921875 -13.484375 C 6.816406 -13.367188 6.769531 -13.226562 6.78125 -13.0625 L 6.90625 -11.171875 C 6.914062 -11.015625 6.976562 -10.882812 7.09375 -10.78125 C 7.21875 -10.6875 7.359375 -10.644531 7.515625 -10.65625 Z M 7.515625 -10.65625 "/></g></g></g><g fill="#ffffff" fill-opacity="1"><g transform="translate(128.496339, 69.999877)"><g><path d="M 1.203125 -0.078125 C 1.046875 -0.0664062 0.898438 -0.117188 0.765625 -0.234375 C 0.628906 -0.347656 0.554688 -0.484375 0.546875 -0.640625 L -0.640625 -18.21875 C -0.648438 -18.382812 -0.597656 -18.523438 -0.484375 -18.640625 C -0.378906 -18.753906 -0.25 -18.816406 -0.09375 -18.828125 L 12.78125 -19.703125 C 12.945312 -19.710938 13.09375 -19.671875 13.21875 -19.578125 C 13.34375 -19.492188 13.410156 -19.359375 13.421875 -19.171875 L 14.140625 -8.5625 C 14.148438 -8.40625 14.21875 -8.269531 14.34375 -8.15625 C 14.476562 -8.050781 14.625 -8.003906 14.78125 -8.015625 C 14.945312 -8.023438 15.078125 -8.09375 15.171875 -8.21875 C 15.273438 -8.351562 15.320312 -8.5 15.3125 -8.65625 L 14.59375 -19.25 C 14.582031 -19.414062 14.632812 -19.554688 14.75 -19.671875 C 14.863281 -19.785156 15 -19.847656 15.15625 -19.859375 L 21.015625 -20.265625 C 21.179688 -20.273438 21.320312 -20.226562 21.4375 -20.125 C 21.550781 -20.019531 21.613281 -19.882812 21.625 -19.71875 L 22.8125 -2.140625 C 22.820312 -1.984375 22.773438 -1.84375 22.671875 -1.71875 C 22.578125 -1.59375 22.445312 -1.523438 22.28125 -1.515625 L 9.40625 -0.640625 C 9.238281 -0.628906 9.09375 -0.671875 8.96875 -0.765625 C 8.84375 -0.859375 8.773438 -0.988281 8.765625 -1.15625 L 8.046875 -11.609375 C 8.035156 -11.773438 7.972656 -11.910156 7.859375 -12.015625 C 7.742188 -12.117188 7.597656 -12.164062 7.421875 -12.15625 C 7.265625 -12.144531 7.128906 -12.078125 7.015625 -11.953125 C 6.910156 -11.835938 6.863281 -11.695312 6.875 -11.53125 L 7.578125 -1.109375 C 7.585938 -0.953125 7.539062 -0.8125 7.4375 -0.6875 C 7.34375 -0.5625 7.207031 -0.488281 7.03125 -0.46875 Z M 1.203125 -0.078125 "/></g></g></g><g fill="#ffffff" fill-opacity="1"><g transform="translate(39.171518, 98.842598)"><g><path d="M 1.171875 -0.078125 C 1.015625 -0.0664062 0.875 -0.117188 0.75 -0.234375 C 0.625 -0.347656 0.554688 -0.484375 0.546875 -0.640625 L -0.640625 -18.21875 C -0.648438 -18.382812 -0.59375 -18.523438 -0.46875 -18.640625 C -0.351562 -18.753906 -0.21875 -18.816406 -0.0625 -18.828125 L 5.765625 -19.21875 C 5.941406 -19.238281 6.085938 -19.195312 6.203125 -19.09375 C 6.316406 -18.988281 6.378906 -18.851562 6.390625 -18.6875 L 7.109375 -8.140625 C 7.117188 -7.984375 7.1875 -7.847656 7.3125 -7.734375 C 7.4375 -7.628906 7.578125 -7.582031 7.734375 -7.59375 C 7.910156 -7.601562 8.046875 -7.671875 8.140625 -7.796875 C 8.242188 -7.921875 8.289062 -8.0625 8.28125 -8.21875 L 7.5625 -18.8125 C 7.550781 -18.96875 7.601562 -19.097656 7.71875 -19.203125 C 7.832031 -19.316406 7.96875 -19.378906 8.125 -19.390625 L 13.984375 -19.78125 C 14.140625 -19.789062 14.273438 -19.75 14.390625 -19.65625 C 14.515625 -19.570312 14.582031 -19.453125 14.59375 -19.296875 L 15.3125 -8.703125 C 15.320312 -8.546875 15.390625 -8.410156 15.515625 -8.296875 C 15.648438 -8.179688 15.796875 -8.128906 15.953125 -8.140625 C 16.117188 -8.148438 16.25 -8.21875 16.34375 -8.34375 C 16.445312 -8.476562 16.492188 -8.625 16.484375 -8.78125 L 15.765625 -19.328125 C 15.753906 -19.492188 15.804688 -19.632812 15.921875 -19.75 C 16.035156 -19.863281 16.175781 -19.925781 16.34375 -19.9375 L 22.1875 -20.34375 C 22.363281 -20.351562 22.503906 -20.304688 22.609375 -20.203125 C 22.722656 -20.097656 22.785156 -19.960938 22.796875 -19.796875 L 23.984375 -2.21875 C 23.992188 -2.0625 23.945312 -1.921875 23.84375 -1.796875 C 23.738281 -1.671875 23.597656 -1.597656 23.421875 -1.578125 L 13.484375 -0.90625 C 13.328125 -0.894531 13.179688 -0.945312 13.046875 -1.0625 C 12.921875 -1.1875 12.851562 -1.328125 12.84375 -1.484375 L 12.640625 -4.5 C 12.628906 -4.675781 12.566406 -4.8125 12.453125 -4.90625 C 12.335938 -5.007812 12.195312 -5.054688 12.03125 -5.046875 C 11.875 -5.035156 11.738281 -4.972656 11.625 -4.859375 C 11.507812 -4.742188 11.457031 -4.597656 11.46875 -4.421875 L 11.671875 -1.390625 C 11.679688 -1.234375 11.628906 -1.085938 11.515625 -0.953125 C 11.410156 -0.828125 11.273438 -0.757812 11.109375 -0.75 Z M 1.171875 -0.078125 "/></g></g></g><g fill="#ffffff" fill-opacity="1"><g transform="translate(63.783455, 97.175999)"><g><path d="M 1.203125 -0.078125 C 1.046875 -0.0664062 0.898438 -0.117188 0.765625 -0.234375 C 0.628906 -0.347656 0.554688 -0.484375 0.546875 -0.640625 L -0.359375 -14.015625 C -0.421875 -14.941406 -0.269531 -15.773438 0.09375 -16.515625 C 0.457031 -17.253906 0.984375 -17.851562 1.671875 -18.3125 C 2.367188 -18.78125 3.175781 -19.046875 4.09375 -19.109375 L 9.765625 -19.5 C 10.691406 -19.5625 11.523438 -19.40625 12.265625 -19.03125 C 13.015625 -18.664062 13.617188 -18.140625 14.078125 -17.453125 C 14.546875 -16.773438 14.8125 -15.972656 14.875 -15.046875 L 15.78125 -1.671875 C 15.789062 -1.515625 15.742188 -1.367188 15.640625 -1.234375 C 15.546875 -1.109375 15.414062 -1.039062 15.25 -1.03125 L 9.40625 -0.640625 C 9.25 -0.628906 9.101562 -0.675781 8.96875 -0.78125 C 8.832031 -0.894531 8.757812 -1.03125 8.75 -1.1875 L 8.53125 -4.4375 C 8.519531 -4.601562 8.457031 -4.742188 8.34375 -4.859375 C 8.226562 -4.972656 8.082031 -5.023438 7.90625 -5.015625 C 7.75 -5.003906 7.613281 -4.9375 7.5 -4.8125 C 7.394531 -4.695312 7.347656 -4.550781 7.359375 -4.375 L 7.578125 -1.109375 C 7.585938 -0.953125 7.539062 -0.8125 7.4375 -0.6875 C 7.34375 -0.5625 7.207031 -0.488281 7.03125 -0.46875 Z M 7.515625 -10.65625 C 7.691406 -10.664062 7.832031 -10.726562 7.9375 -10.84375 C 8.039062 -10.957031 8.085938 -11.09375 8.078125 -11.25 L 7.953125 -13.140625 C 7.941406 -13.304688 7.875 -13.441406 7.75 -13.546875 C 7.632812 -13.648438 7.488281 -13.695312 7.3125 -13.6875 C 7.15625 -13.675781 7.023438 -13.609375 6.921875 -13.484375 C 6.816406 -13.367188 6.769531 -13.226562 6.78125 -13.0625 L 6.90625 -11.171875 C 6.914062 -11.015625 6.976562 -10.882812 7.09375 -10.78125 C 7.21875 -10.6875 7.359375 -10.644531 7.515625 -10.65625 Z M 7.515625 -10.65625 "/></g></g></g><g fill="#ffffff" fill-opacity="1"><g transform="translate(80.191409, 96.064933)"><g><path d="M 1.171875 -0.078125 C 1.015625 -0.0664062 0.875 -0.117188 0.75 -0.234375 C 0.625 -0.347656 0.554688 -0.484375 0.546875 -0.640625 L -0.640625 -18.21875 C -0.648438 -18.382812 -0.59375 -18.523438 -0.46875 -18.640625 C -0.351562 -18.753906 -0.21875 -18.816406 -0.0625 -18.828125 L 5.765625 -19.21875 C 5.941406 -19.238281 6.085938 -19.191406 6.203125 -19.078125 C 6.316406 -18.972656 6.378906 -18.832031 6.390625 -18.65625 L 7.15625 -7.4375 C 7.164062 -7.28125 7.238281 -7.144531 7.375 -7.03125 C 7.507812 -6.925781 7.65625 -6.878906 7.8125 -6.890625 L 13.640625 -7.28125 C 13.816406 -7.289062 13.960938 -7.242188 14.078125 -7.140625 C 14.191406 -7.035156 14.253906 -6.894531 14.265625 -6.71875 L 14.609375 -1.578125 C 14.617188 -1.421875 14.570312 -1.28125 14.46875 -1.15625 C 14.375 -1.03125 14.238281 -0.960938 14.0625 -0.953125 Z M 1.171875 -0.078125 "/></g></g></g><g fill="#ffffff" fill-opacity="1"><g transform="translate(95.427372, 95.033229)"><g><path d="M 1.171875 -0.078125 C 1.015625 -0.0664062 0.875 -0.117188 0.75 -0.234375 C 0.625 -0.347656 0.554688 -0.484375 0.546875 -0.640625 L -0.640625 -18.21875 C -0.648438 -18.382812 -0.59375 -18.523438 -0.46875 -18.640625 C -0.351562 -18.753906 -0.21875 -18.816406 -0.0625 -18.828125 L 5.765625 -19.21875 C 5.941406 -19.238281 6.085938 -19.191406 6.203125 -19.078125 C 6.316406 -18.972656 6.378906 -18.832031 6.390625 -18.65625 L 7.15625 -7.4375 C 7.164062 -7.28125 7.238281 -7.144531 7.375 -7.03125 C 7.507812 -6.925781 7.65625 -6.878906 7.8125 -6.890625 L 13.640625 -7.28125 C 13.816406 -7.289062 13.960938 -7.242188 14.078125 -7.140625 C 14.191406 -7.035156 14.253906 -6.894531 14.265625 -6.71875 L 14.609375 -1.578125 C 14.617188 -1.421875 14.570312 -1.28125 14.46875 -1.15625 C 14.375 -1.03125 14.238281 -0.960938 14.0625 -0.953125 Z M 1.171875 -0.078125 "/></g></g></g><g fill="#ffffff" fill-opacity="1"><g transform="translate(110.663336, 94.001524)"><g><path d="M 1.203125 -0.078125 C 1.046875 -0.0664062 0.898438 -0.117188 0.765625 -0.234375 C 0.628906 -0.347656 0.554688 -0.484375 0.546875 -0.640625 L -0.640625 -18.21875 C -0.648438 -18.382812 -0.597656 -18.523438 -0.484375 -18.640625 C -0.378906 -18.753906 -0.25 -18.816406 -0.09375 -18.828125 L 17.515625 -20.015625 C 17.679688 -20.023438 17.820312 -19.976562 17.9375 -19.875 C 18.050781 -19.78125 18.113281 -19.648438 18.125 -19.484375 L 18.4375 -15.03125 C 18.445312 -14.875 18.398438 -14.726562 18.296875 -14.59375 C 18.191406 -14.46875 18.054688 -14.398438 17.890625 -14.390625 L 7.3125 -13.6875 C 7.15625 -13.675781 7.023438 -13.609375 6.921875 -13.484375 C 6.816406 -13.367188 6.769531 -13.226562 6.78125 -13.0625 C 6.789062 -12.90625 6.851562 -12.769531 6.96875 -12.65625 C 7.09375 -12.550781 7.234375 -12.503906 7.390625 -12.515625 L 17 -13.15625 C 17.175781 -13.164062 17.328125 -13.117188 17.453125 -13.015625 C 17.578125 -12.921875 17.644531 -12.785156 17.65625 -12.609375 L 17.921875 -8.640625 C 17.929688 -8.484375 17.882812 -8.335938 17.78125 -8.203125 C 17.6875 -8.078125 17.554688 -8.007812 17.390625 -8 L 7.75 -7.359375 C 7.59375 -7.347656 7.457031 -7.28125 7.34375 -7.15625 C 7.238281 -7.039062 7.191406 -6.898438 7.203125 -6.734375 C 7.210938 -6.578125 7.28125 -6.441406 7.40625 -6.328125 C 7.53125 -6.222656 7.671875 -6.175781 7.828125 -6.1875 L 18.375 -6.890625 C 18.550781 -6.898438 18.695312 -6.851562 18.8125 -6.75 C 18.9375 -6.65625 19.003906 -6.519531 19.015625 -6.34375 L 19.3125 -1.90625 C 19.320312 -1.75 19.273438 -1.601562 19.171875 -1.46875 C 19.078125 -1.34375 18.945312 -1.273438 18.78125 -1.265625 Z M 1.203125 -0.078125 "/></g></g></g><g fill="#ffffff" fill-opacity="1"><g transform="translate(130.610723, 92.650786)"><g><path d="M 1.171875 -0.078125 C 1.015625 -0.0664062 0.875 -0.117188 0.75 -0.234375 C 0.625 -0.347656 0.554688 -0.484375 0.546875 -0.640625 L -0.640625 -18.21875 C -0.648438 -18.382812 -0.597656 -18.523438 -0.484375 -18.640625 C -0.378906 -18.753906 -0.25 -18.816406 -0.09375 -18.828125 L 14.265625 -19.796875 C 14.992188 -19.847656 15.65625 -19.726562 16.25 -19.4375 C 16.851562 -19.15625 17.335938 -18.738281 17.703125 -18.1875 C 18.066406 -17.632812 18.273438 -16.988281 18.328125 -16.25 L 18.5 -13.671875 C 18.550781 -12.972656 18.363281 -12.382812 17.9375 -11.90625 C 17.519531 -11.425781 16.96875 -11.160156 16.28125 -11.109375 L 16.078125 -11.109375 C 15.921875 -11.097656 15.785156 -11.03125 15.671875 -10.90625 C 15.554688 -10.789062 15.503906 -10.648438 15.515625 -10.484375 C 15.523438 -10.328125 15.59375 -10.191406 15.71875 -10.078125 C 15.851562 -9.972656 16 -9.925781 16.15625 -9.9375 L 16.359375 -9.9375 C 17.046875 -9.988281 17.628906 -9.800781 18.109375 -9.375 C 18.597656 -8.957031 18.863281 -8.40625 18.90625 -7.71875 L 19.296875 -1.921875 C 19.304688 -1.765625 19.257812 -1.617188 19.15625 -1.484375 C 19.0625 -1.347656 18.925781 -1.273438 18.75 -1.265625 L 12.890625 -0.875 C 12.734375 -0.863281 12.59375 -0.910156 12.46875 -1.015625 C 12.34375 -1.128906 12.273438 -1.265625 12.265625 -1.421875 L 11.90625 -6.921875 C 11.882812 -7.097656 11.816406 -7.238281 11.703125 -7.34375 C 11.585938 -7.445312 11.441406 -7.492188 11.265625 -7.484375 L 7.75 -7.25 C 7.59375 -7.238281 7.457031 -7.171875 7.34375 -7.046875 C 7.238281 -6.929688 7.195312 -6.785156 7.21875 -6.609375 L 7.578125 -1.125 C 7.585938 -0.96875 7.539062 -0.820312 7.4375 -0.6875 C 7.34375 -0.5625 7.207031 -0.488281 7.03125 -0.46875 Z M 7.390625 -12.640625 L 10.90625 -12.875 C 11.082031 -12.882812 11.21875 -12.945312 11.3125 -13.0625 C 11.414062 -13.1875 11.460938 -13.328125 11.453125 -13.484375 C 11.441406 -13.660156 11.378906 -13.800781 11.265625 -13.90625 C 11.148438 -14.007812 11.003906 -14.054688 10.828125 -14.046875 L 7.3125 -13.8125 C 7.15625 -13.800781 7.019531 -13.734375 6.90625 -13.609375 C 6.800781 -13.492188 6.753906 -13.347656 6.765625 -13.171875 C 6.773438 -13.015625 6.84375 -12.882812 6.96875 -12.78125 C 7.09375 -12.675781 7.234375 -12.628906 7.390625 -12.640625 Z M 7.390625 -12.640625 "/></g></g></g></svg>