<svg xmlns="http://www.w3.org/2000/svg" xmlns:xlink="http://www.w3.org/1999/xlink" zoomAndPan="magnify" preserveAspectRatio="xMidYMid meet" version="1.0" viewBox="26 39.02 137.39 62.59"><defs><g/></defs><path stroke-linecap="butt" transform="matrix(0.874692, 0, 0, 0.874692, 11.670154, 48.218763)" fill="none" stroke-linejoin="miter" d="M 29.105947 22.99914 L 35.795798 22.99914 C 36.17093 22.99914 36.465677 22.704393 36.465677 22.329261 L 36.465677 10.369701 C 36.465677 9.999035 36.760423 9.695357 37.140021 9.695357 C 37.515153 9.695357 37.809899 9.999035 37.809899 10.369701 L 37.809899 22.382852 C 37.809899 22.731188 38.131441 22.99914 38.479778 22.99914 L 45.196424 22.99914 C 45.553692 22.99914 45.870768 22.731188 45.870768 22.382852 L 45.870768 10.369701 C 45.870768 9.999035 46.16998 9.695357 46.540646 9.695357 C 46.92471 9.695357 47.219456 9.999035 47.219456 10.369701 L 47.219456 22.329261 C 47.219456 22.704393 47.540998 22.99914 47.911664 22.99914 L 54.605981 22.99914 C 54.976647 22.99914 55.271394 22.704393 55.271394 22.329261 L 55.271394 2.179322 C 55.271394 1.799724 54.949852 1.500512 54.579186 1.500512 L 43.182323 1.500512 C 42.807191 1.500512 42.512445 1.822054 42.512445 2.206117 L 42.512445 5.935106 C 42.512445 6.310238 42.217698 6.604985 41.838101 6.604985 C 41.462969 6.604985 41.168222 6.310238 41.168222 5.935106 L 41.168222 2.179322 C 41.168222 1.799724 40.846681 1.500512 40.476015 1.500512 L 29.079152 1.500512 C 28.699554 1.500512 28.404808 1.799724 28.404808 2.179322 L 28.404808 22.329261 C 28.404808 22.704393 28.730815 22.99914 29.105947 22.99914 Z M 57.307824 22.99914 L 77.462229 22.99914 C 77.832895 22.99914 78.127641 22.704393 78.127641 22.329261 L 78.127641 17.220323 C 78.127641 16.845191 77.806099 16.550445 77.435433 16.550445 L 65.341897 16.550445 C 64.9623 16.550445 64.667553 16.255698 64.667553 15.880566 C 64.667553 15.500969 64.9623 15.206222 65.341897 15.206222 L 76.385957 15.206222 C 76.756623 15.206222 77.05137 14.911476 77.05137 14.536344 L 77.05137 9.963308 C 77.05137 9.592642 76.729828 9.297895 76.359162 9.297895 L 65.341897 9.297895 C 64.9623 9.297895 64.667553 8.998683 64.667553 8.628017 C 64.667553 8.248419 64.9623 7.949207 65.341897 7.949207 L 77.462229 7.949207 C 77.832895 7.949207 78.127641 7.654461 78.127641 7.283795 L 78.127641 2.179322 C 78.127641 1.799724 77.832895 1.500512 77.462229 1.500512 L 57.281028 1.500512 C 56.901431 1.500512 56.606684 1.799724 56.606684 2.179322 L 56.606684 22.329261 C 56.606684 22.704393 56.932692 22.99914 57.307824 22.99914 Z M 80.164071 22.99914 L 86.858388 22.99914 C 87.229054 22.99914 87.523801 22.704393 87.523801 22.329261 L 87.523801 18.564545 C 87.523801 18.189413 87.818547 17.894667 88.202611 17.894667 C 88.573277 17.894667 88.868023 18.216209 88.868023 18.59134 L 88.868023 22.329261 C 88.868023 22.704393 89.189565 22.99914 89.564696 22.99914 L 96.254548 22.99914 C 96.638611 22.99914 96.933358 22.704393 96.933358 22.329261 L 96.933358 6.989048 C 96.933358 3.813825 94.624511 1.500512 91.449287 1.500512 L 84.947002 1.500512 C 81.780711 1.500512 79.462932 3.813825 79.462932 6.989048 L 79.462932 22.329261 C 79.462932 22.704393 79.788939 22.99914 80.164071 22.99914 Z M 88.202611 11.445972 C 87.818547 11.445972 87.523801 11.151225 87.523801 10.771628 L 87.523801 8.628017 C 87.523801 8.248419 87.818547 7.949207 88.202611 7.949207 C 88.573277 7.949207 88.868023 8.248419 88.868023 8.628017 L 88.868023 10.771628 C 88.868023 11.151225 88.573277 11.445972 88.202611 11.445972 Z M 103.748253 22.99914 L 115.060264 22.99914 C 115.413067 22.99914 115.734609 22.677598 115.734609 22.302466 L 115.761404 10.771628 C 115.761404 10.396496 115.439862 10.101749 115.060264 10.101749 L 108.365947 10.101749 C 108.017611 10.101749 107.696069 10.423291 107.696069 10.798423 L 107.67374 15.076712 C 107.67374 15.447378 107.352198 15.746591 107.003861 15.746591 C 106.619798 15.746591 106.325051 15.447378 106.325051 15.076712 L 106.325051 9.431871 C 106.325051 9.052273 106.619798 8.757527 107.003861 8.757527 L 115.060264 8.757527 C 115.439862 8.757527 115.734609 8.435985 115.734609 8.060854 L 115.734609 2.179322 C 115.734609 1.799724 115.439862 1.500512 115.060264 1.500512 L 103.748253 1.500512 C 100.581962 1.500512 98.264183 3.813825 98.264183 6.989048 L 98.264183 17.515069 C 98.264183 20.690292 100.581962 22.99914 103.748253 22.99914 Z M 117.793368 22.99914 L 124.487685 22.99914 C 124.858351 22.99914 125.153097 22.704393 125.153097 22.329261 L 125.153097 18.564545 C 125.153097 18.189413 125.45231 17.894667 125.831907 17.894667 C 126.202573 17.894667 126.501786 18.216209 126.501786 18.59134 L 126.501786 22.329261 C 126.501786 22.704393 126.823327 22.99914 127.193993 22.99914 L 133.88831 22.99914 C 134.267908 22.99914 134.562655 22.704393 134.562655 22.329261 L 134.562655 6.989048 C 134.562655 3.813825 132.253807 1.500512 129.078584 1.500512 L 122.576299 1.500512 C 119.410008 1.500512 117.092229 3.813825 117.092229 6.989048 L 117.092229 22.329261 C 117.092229 22.704393 117.422702 22.99914 117.793368 22.99914 Z M 125.831907 11.445972 C 125.45231 11.445972 125.153097 11.151225 125.153097 10.771628 L 125.153097 8.628017 C 125.153097 8.248419 125.45231 7.949207 125.831907 7.949207 C 126.202573 7.949207 126.501786 8.248419 126.501786 8.628017 L 126.501786 10.771628 C 126.501786 11.151225 126.202573 11.445972 125.831907 11.445972 Z M 136.594619 22.99914 L 143.288936 22.99914 C 143.659602 22.99914 143.958814 22.704393 143.958814 22.329261 L 143.958814 10.369701 C 143.958814 9.999035 144.253561 9.695357 144.633158 9.695357 C 145.00829 9.695357 145.303037 9.999035 145.303037 10.369701 L 145.303037 22.356056 C 145.303037 22.757983 145.597783 22.99914 145.995244 22.99914 L 160.75043 22.99914 C 161.130028 22.99914 161.424774 22.704393 161.424774 22.329261 L 161.424774 2.179322 C 161.424774 1.799724 161.130028 1.500512 160.75043 1.500512 L 154.033784 1.500512 C 153.658652 1.500512 153.363906 1.799724 153.363906 2.179322 L 153.363906 14.321983 C 153.363906 14.697115 153.069159 14.991861 152.689561 14.991861 C 152.31443 14.991861 152.019683 14.697115 152.019683 14.321983 L 152.019683 2.152527 C 152.019683 1.719339 151.724937 1.500512 151.318544 1.500512 L 136.567824 1.500512 C 136.188226 1.500512 135.89348 1.799724 135.89348 2.179322 L 135.89348 22.329261 C 135.89348 22.704393 136.223953 22.99914 136.594619 22.99914 Z M 136.594619 22.99914 " stroke="#ff78dd" stroke-width="4.669045" stroke-opacity="1" stroke-miterlimit="4"/><path stroke-linecap="butt" transform="matrix(0.874692, 0, 0, 0.874692, 11.670154, 48.218763)" fill="none" stroke-linejoin="miter" d="M 32.455339 48.999349 L 43.847736 48.999349 C 44.222867 48.999349 44.544409 48.704603 44.544409 48.329471 L 44.544409 44.832706 C 44.544409 44.46204 44.839155 44.167294 45.214287 44.167294 C 45.593885 44.167294 45.888631 44.46204 45.888631 44.832706 L 45.888631 48.302676 C 45.888631 48.677808 46.183378 48.999349 46.55851 48.999349 L 57.950907 48.999349 C 58.326039 48.999349 58.64758 48.704603 58.64758 48.329471 L 58.64758 28.179532 C 58.64758 27.799934 58.352834 27.500722 57.977702 27.500722 L 51.287851 27.500722 C 50.912719 27.500722 50.591177 27.799934 50.591177 28.179532 L 50.591177 40.268602 C 50.591177 40.643734 50.296431 40.93848 49.916833 40.93848 C 49.541701 40.93848 49.246955 40.643734 49.246955 40.268602 L 49.246955 28.121476 C 49.246955 27.773139 48.925413 27.500722 48.572611 27.500722 L 41.855964 27.500722 C 41.507627 27.500722 41.186086 27.773139 41.186086 28.121476 L 41.186086 40.268602 C 41.186086 40.643734 40.891339 40.93848 40.516208 40.93848 C 40.13661 40.93848 39.841863 40.643734 39.841863 40.268602 L 39.841863 28.179532 C 39.841863 27.799934 39.547117 27.500722 39.171985 27.500722 L 32.482134 27.500722 C 32.107002 27.500722 31.776529 27.799934 31.776529 28.179532 L 31.776529 48.329471 C 31.776529 48.704603 32.075741 48.999349 32.455339 48.999349 Z M 60.68401 48.999349 L 67.373861 48.999349 C 67.748993 48.999349 68.04374 48.704603 68.04374 48.329471 L 68.04374 44.564755 C 68.04374 44.189623 68.338486 43.894877 68.718084 43.894877 C 69.093216 43.894877 69.387962 44.216418 69.387962 44.59155 L 69.387962 48.329471 C 69.387962 48.704603 69.709504 48.999349 70.084636 48.999349 L 76.774487 48.999349 C 77.154085 48.999349 77.448831 48.704603 77.448831 48.329471 L 77.448831 32.984792 C 77.448831 29.814035 75.139984 27.500722 71.964761 27.500722 L 65.466941 27.500722 C 62.296184 27.500722 59.982871 29.814035 59.982871 32.984792 L 59.982871 48.329471 C 59.982871 48.704603 60.308878 48.999349 60.68401 48.999349 Z M 68.718084 37.446182 C 68.338486 37.446182 68.04374 37.151435 68.04374 36.771837 L 68.04374 34.628227 C 68.04374 34.248629 68.338486 33.949417 68.718084 33.949417 C 69.093216 33.949417 69.387962 34.248629 69.387962 34.628227 L 69.387962 36.771837 C 69.387962 37.151435 69.093216 37.446182 68.718084 37.446182 Z M 79.458466 48.999349 L 94.235981 48.999349 C 94.611113 48.999349 94.905859 48.704603 94.905859 48.329471 L 94.905859 42.412213 C 94.905859 42.041547 94.611113 41.7468 94.235981 41.7468 L 87.54613 41.7468 C 87.166532 41.7468 86.844991 41.447588 86.844991 41.076922 L 86.844991 28.206327 C 86.844991 27.822263 86.550244 27.500722 86.175112 27.500722 L 79.485261 27.500722 C 79.110129 27.500722 78.784122 27.799934 78.784122 28.179532 L 78.784122 48.329471 C 78.784122 48.704603 79.078868 48.999349 79.458466 48.999349 Z M 96.915494 48.999349 L 111.697475 48.999349 C 112.068141 48.999349 112.367354 48.704603 112.367354 48.329471 L 112.367354 42.412213 C 112.367354 42.041547 112.068141 41.7468 111.697475 41.7468 L 105.003158 41.7468 C 104.623561 41.7468 104.302019 41.447588 104.302019 41.076922 L 104.302019 28.206327 C 104.302019 27.822263 104.007273 27.500722 103.632141 27.500722 L 96.942289 27.500722 C 96.567158 27.500722 96.24115 27.799934 96.24115 28.179532 L 96.24115 48.329471 C 96.24115 48.704603 96.535897 48.999349 96.915494 48.999349 Z M 114.399318 48.999349 L 134.553723 48.999349 C 134.928855 48.999349 135.223601 48.704603 135.223601 48.329471 L 135.223601 43.220532 C 135.223601 42.845401 134.90206 42.550654 134.526928 42.550654 L 122.437857 42.550654 C 122.05826 42.550654 121.763513 42.255908 121.763513 41.880776 C 121.763513 41.501178 122.05826 41.206432 122.437857 41.206432 L 133.477452 41.206432 C 133.852584 41.206432 134.14733 40.911685 134.14733 40.536553 L 134.14733 35.963518 C 134.14733 35.592852 133.825789 35.298105 133.450657 35.298105 L 122.437857 35.298105 C 122.05826 35.298105 121.763513 34.998893 121.763513 34.628227 C 121.763513 34.248629 122.05826 33.949417 122.437857 33.949417 L 134.553723 33.949417 C 134.928855 33.949417 135.223601 33.65467 135.223601 33.284004 L 135.223601 28.179532 C 135.223601 27.799934 134.928855 27.500722 134.553723 27.500722 L 114.376989 27.500722 C 113.992925 27.500722 113.698179 27.799934 113.698179 28.179532 L 113.698179 48.329471 C 113.698179 48.704603 114.028652 48.999349 114.399318 48.999349 Z M 137.233236 48.999349 L 143.949883 48.999349 C 144.325014 48.999349 144.619761 48.677808 144.619761 48.302676 L 144.619761 42.014752 C 144.619761 41.63962 144.914507 41.344873 145.294105 41.344873 L 149.322306 41.344873 C 149.697438 41.344873 149.992185 41.63962 149.992185 42.014752 L 149.992185 48.329471 C 149.992185 48.704603 150.286931 48.999349 150.666529 48.999349 L 157.383175 48.999349 C 157.758307 48.999349 158.053054 48.677808 158.053054 48.302676 L 158.053054 41.666415 C 158.053054 40.07657 156.900863 38.92438 155.311018 38.92438 L 155.074328 38.92438 C 154.69473 38.92438 154.399984 38.629633 154.399984 38.254501 C 154.399984 37.874904 154.69473 37.580157 155.074328 37.580157 L 155.311018 37.580157 C 156.900863 37.580157 158.053054 36.423501 158.053054 34.838122 L 158.053054 31.886192 C 158.053054 29.358518 156.20419 27.500722 153.676515 27.500722 L 137.233236 27.500722 C 136.853638 27.500722 136.554426 27.799934 136.554426 28.179532 L 136.554426 48.329471 C 136.554426 48.704603 136.853638 48.999349 137.233236 48.999349 Z M 145.294105 35.164129 C 144.914507 35.164129 144.619761 34.869383 144.619761 34.489785 C 144.619761 34.114653 144.914507 33.819907 145.294105 33.819907 L 149.322306 33.819907 C 149.697438 33.819907 149.992185 34.114653 149.992185 34.489785 C 149.992185 34.869383 149.697438 35.164129 149.322306 35.164129 Z M 145.294105 35.164129 " stroke="#ff78dd" stroke-width="4.669045" stroke-opacity="1" stroke-miterlimit="4"/><g fill="#ffffff" fill-opacity="1"><g transform="translate(35.929202, 68.33669)"><g><path d="M 1.199219 0 L 7.050781 0 C 7.378906 0 7.636719 -0.257812 7.636719 -0.585938 L 7.636719 -11.046875 C 7.636719 -11.375 7.898438 -11.632812 8.226562 -11.632812 C 8.554688 -11.632812 8.8125 -11.375 8.8125 -11.046875 L 8.8125 -0.539062 C 8.8125 -0.234375 9.09375 0 9.402344 0 L 15.277344 0 C 15.582031 0 15.863281 -0.234375 15.863281 -0.539062 L 15.863281 -11.046875 C 15.863281 -11.375 16.125 -11.632812 16.453125 -11.632812 C 16.78125 -11.632812 17.039062 -11.375 17.039062 -11.046875 L 17.039062 -0.585938 C 17.039062 -0.257812 17.320312 0 17.652344 0 L 23.503906 0 C 23.832031 0 24.089844 -0.257812 24.089844 -0.585938 L 24.089844 -18.214844 C 24.089844 -18.542969 23.808594 -18.800781 23.480469 -18.800781 L 13.515625 -18.800781 C 13.183594 -18.800781 12.925781 -18.519531 12.925781 -18.191406 L 12.925781 -14.925781 C 12.925781 -14.59375 12.667969 -14.335938 12.339844 -14.335938 C 12.011719 -14.335938 11.75 -14.59375 11.75 -14.925781 L 11.75 -18.214844 C 11.75 -18.542969 11.46875 -18.800781 11.140625 -18.800781 L 1.175781 -18.800781 C 0.847656 -18.800781 0.585938 -18.542969 0.585938 -18.214844 L 0.585938 -0.585938 C 0.585938 -0.257812 0.871094 0 1.199219 0 Z M 1.199219 0 "/></g></g></g><g fill="#ffffff" fill-opacity="1"><g transform="translate(60.597502, 68.33669)"><g><path d="M 1.199219 0 L 18.824219 0 C 19.15625 0 19.414062 -0.257812 19.414062 -0.585938 L 19.414062 -5.054688 C 19.414062 -5.382812 19.132812 -5.640625 18.800781 -5.640625 L 8.226562 -5.640625 C 7.898438 -5.640625 7.636719 -5.898438 7.636719 -6.226562 C 7.636719 -6.558594 7.898438 -6.816406 8.226562 -6.816406 L 17.886719 -6.816406 C 18.214844 -6.816406 18.472656 -7.074219 18.472656 -7.402344 L 18.472656 -11.398438 C 18.472656 -11.726562 18.191406 -11.988281 17.863281 -11.988281 L 8.226562 -11.988281 C 7.898438 -11.988281 7.636719 -12.246094 7.636719 -12.574219 C 7.636719 -12.902344 7.898438 -13.160156 8.226562 -13.160156 L 18.824219 -13.160156 C 19.15625 -13.160156 19.414062 -13.421875 19.414062 -13.75 L 19.414062 -18.214844 C 19.414062 -18.542969 19.15625 -18.800781 18.824219 -18.800781 L 1.175781 -18.800781 C 0.847656 -18.800781 0.585938 -18.542969 0.585938 -18.214844 L 0.585938 -0.585938 C 0.585938 -0.257812 0.871094 0 1.199219 0 Z M 1.199219 0 "/></g></g></g><g fill="#ffffff" fill-opacity="1"><g transform="translate(80.59057, 68.33669)"><g><path d="M 1.199219 0 L 7.050781 0 C 7.378906 0 7.636719 -0.257812 7.636719 -0.585938 L 7.636719 -3.878906 C 7.636719 -4.207031 7.898438 -4.464844 8.226562 -4.464844 C 8.554688 -4.464844 8.8125 -4.183594 8.8125 -3.855469 L 8.8125 -0.585938 C 8.8125 -0.257812 9.09375 0 9.425781 0 L 15.277344 0 C 15.605469 0 15.863281 -0.257812 15.863281 -0.585938 L 15.863281 -14.007812 C 15.863281 -16.78125 13.84375 -18.800781 11.070312 -18.800781 L 5.382812 -18.800781 C 2.609375 -18.800781 0.585938 -16.78125 0.585938 -14.007812 L 0.585938 -0.585938 C 0.585938 -0.257812 0.871094 0 1.199219 0 Z M 8.226562 -10.105469 C 7.898438 -10.105469 7.636719 -10.363281 7.636719 -10.695312 L 7.636719 -12.574219 C 7.636719 -12.902344 7.898438 -13.160156 8.226562 -13.160156 C 8.554688 -13.160156 8.8125 -12.902344 8.8125 -12.574219 L 8.8125 -10.695312 C 8.8125 -10.363281 8.554688 -10.105469 8.226562 -10.105469 Z M 8.226562 -10.105469 "/></g></g></g><g fill="#ffffff" fill-opacity="1"><g transform="translate(97.036099, 68.33669)"><g><path d="M 5.382812 0 L 15.277344 0 C 15.582031 0 15.863281 -0.28125 15.863281 -0.609375 L 15.886719 -10.695312 C 15.886719 -11.023438 15.605469 -11.28125 15.277344 -11.28125 L 9.425781 -11.28125 C 9.121094 -11.28125 8.835938 -11 8.835938 -10.671875 L 8.8125 -6.933594 C 8.8125 -6.605469 8.53125 -6.347656 8.226562 -6.347656 C 7.898438 -6.347656 7.636719 -6.605469 7.636719 -6.933594 L 7.636719 -11.867188 C 7.636719 -12.199219 7.898438 -12.457031 8.226562 -12.457031 L 15.277344 -12.457031 C 15.605469 -12.457031 15.863281 -12.738281 15.863281 -13.066406 L 15.863281 -18.214844 C 15.863281 -18.542969 15.605469 -18.800781 15.277344 -18.800781 L 5.382812 -18.800781 C 2.609375 -18.800781 0.585938 -16.78125 0.585938 -14.007812 L 0.585938 -4.792969 C 0.585938 -2.019531 2.609375 0 5.382812 0 Z M 5.382812 0 "/></g></g></g><g fill="#ffffff" fill-opacity="1"><g transform="translate(113.505118, 68.33669)"><g><path d="M 1.199219 0 L 7.050781 0 C 7.378906 0 7.636719 -0.257812 7.636719 -0.585938 L 7.636719 -3.878906 C 7.636719 -4.207031 7.898438 -4.464844 8.226562 -4.464844 C 8.554688 -4.464844 8.8125 -4.183594 8.8125 -3.855469 L 8.8125 -0.585938 C 8.8125 -0.257812 9.09375 0 9.425781 0 L 15.277344 0 C 15.605469 0 15.863281 -0.257812 15.863281 -0.585938 L 15.863281 -14.007812 C 15.863281 -16.78125 13.84375 -18.800781 11.070312 -18.800781 L 5.382812 -18.800781 C 2.609375 -18.800781 0.585938 -16.78125 0.585938 -14.007812 L 0.585938 -0.585938 C 0.585938 -0.257812 0.871094 0 1.199219 0 Z M 8.226562 -10.105469 C 7.898438 -10.105469 7.636719 -10.363281 7.636719 -10.695312 L 7.636719 -12.574219 C 7.636719 -12.902344 7.898438 -13.160156 8.226562 -13.160156 C 8.554688 -13.160156 8.8125 -12.902344 8.8125 -12.574219 L 8.8125 -10.695312 C 8.8125 -10.363281 8.554688 -10.105469 8.226562 -10.105469 Z M 8.226562 -10.105469 "/></g></g></g><g fill="#ffffff" fill-opacity="1"><g transform="translate(129.950647, 68.33669)"><g><path d="M 1.199219 0 L 7.050781 0 C 7.378906 0 7.636719 -0.257812 7.636719 -0.585938 L 7.636719 -11.046875 C 7.636719 -11.375 7.898438 -11.632812 8.226562 -11.632812 C 8.554688 -11.632812 8.8125 -11.375 8.8125 -11.046875 L 8.8125 -0.5625 C 8.8125 -0.210938 9.070312 0 9.425781 0 L 22.328125 0 C 22.65625 0 22.914062 -0.257812 22.914062 -0.585938 L 22.914062 -18.214844 C 22.914062 -18.542969 22.65625 -18.800781 22.328125 -18.800781 L 16.453125 -18.800781 C 16.125 -18.800781 15.863281 -18.542969 15.863281 -18.214844 L 15.863281 -7.589844 C 15.863281 -7.261719 15.605469 -7.003906 15.277344 -7.003906 C 14.949219 -7.003906 14.6875 -7.261719 14.6875 -7.589844 L 14.6875 -18.238281 C 14.6875 -18.613281 14.429688 -18.800781 14.078125 -18.800781 L 1.175781 -18.800781 C 0.847656 -18.800781 0.585938 -18.542969 0.585938 -18.214844 L 0.585938 -0.585938 C 0.585938 -0.257812 0.871094 0 1.199219 0 Z M 1.199219 0 "/></g></g></g><g fill="#ffffff" fill-opacity="1"><g transform="translate(38.881289, 91.078694)"><g><path d="M 1.175781 0 L 11.140625 0 C 11.46875 0 11.75 -0.257812 11.75 -0.585938 L 11.75 -3.644531 C 11.75 -3.972656 12.011719 -4.230469 12.339844 -4.230469 C 12.667969 -4.230469 12.925781 -3.972656 12.925781 -3.644531 L 12.925781 -0.609375 C 12.925781 -0.28125 13.183594 0 13.515625 0 L 23.480469 0 C 23.808594 0 24.089844 -0.257812 24.089844 -0.585938 L 24.089844 -18.214844 C 24.089844 -18.542969 23.832031 -18.800781 23.503906 -18.800781 L 17.652344 -18.800781 C 17.320312 -18.800781 17.039062 -18.542969 17.039062 -18.214844 L 17.039062 -7.636719 C 17.039062 -7.308594 16.78125 -7.050781 16.453125 -7.050781 C 16.125 -7.050781 15.863281 -7.308594 15.863281 -7.636719 L 15.863281 -18.261719 C 15.863281 -18.566406 15.582031 -18.800781 15.277344 -18.800781 L 9.402344 -18.800781 C 9.09375 -18.800781 8.8125 -18.566406 8.8125 -18.261719 L 8.8125 -7.636719 C 8.8125 -7.308594 8.554688 -7.050781 8.226562 -7.050781 C 7.898438 -7.050781 7.636719 -7.308594 7.636719 -7.636719 L 7.636719 -18.214844 C 7.636719 -18.542969 7.378906 -18.800781 7.050781 -18.800781 L 1.199219 -18.800781 C 0.871094 -18.800781 0.585938 -18.542969 0.585938 -18.214844 L 0.585938 -0.585938 C 0.585938 -0.257812 0.847656 0 1.175781 0 Z M 1.175781 0 "/></g></g></g><g fill="#ffffff" fill-opacity="1"><g transform="translate(63.549589, 91.078694)"><g><path d="M 1.199219 0 L 7.050781 0 C 7.378906 0 7.636719 -0.257812 7.636719 -0.585938 L 7.636719 -3.878906 C 7.636719 -4.207031 7.898438 -4.464844 8.226562 -4.464844 C 8.554688 -4.464844 8.8125 -4.183594 8.8125 -3.855469 L 8.8125 -0.585938 C 8.8125 -0.257812 9.09375 0 9.425781 0 L 15.277344 0 C 15.605469 0 15.863281 -0.257812 15.863281 -0.585938 L 15.863281 -14.007812 C 15.863281 -16.78125 13.84375 -18.800781 11.070312 -18.800781 L 5.382812 -18.800781 C 2.609375 -18.800781 0.585938 -16.78125 0.585938 -14.007812 L 0.585938 -0.585938 C 0.585938 -0.257812 0.871094 0 1.199219 0 Z M 8.226562 -10.105469 C 7.898438 -10.105469 7.636719 -10.363281 7.636719 -10.695312 L 7.636719 -12.574219 C 7.636719 -12.902344 7.898438 -13.160156 8.226562 -13.160156 C 8.554688 -13.160156 8.8125 -12.902344 8.8125 -12.574219 L 8.8125 -10.695312 C 8.8125 -10.363281 8.554688 -10.105469 8.226562 -10.105469 Z M 8.226562 -10.105469 "/></g></g></g><g fill="#ffffff" fill-opacity="1"><g transform="translate(79.995118, 91.078694)"><g><path d="M 1.175781 0 L 14.101562 0 C 14.429688 0 14.6875 -0.257812 14.6875 -0.585938 L 14.6875 -5.757812 C 14.6875 -6.085938 14.429688 -6.347656 14.101562 -6.347656 L 8.25 -6.347656 C 7.921875 -6.347656 7.636719 -6.605469 7.636719 -6.933594 L 7.636719 -18.191406 C 7.636719 -18.519531 7.378906 -18.800781 7.050781 -18.800781 L 1.199219 -18.800781 C 0.871094 -18.800781 0.585938 -18.542969 0.585938 -18.214844 L 0.585938 -0.585938 C 0.585938 -0.257812 0.847656 0 1.175781 0 Z M 1.175781 0 "/></g></g></g><g fill="#ffffff" fill-opacity="1"><g transform="translate(95.265973, 91.078694)"><g><path d="M 1.175781 0 L 14.101562 0 C 14.429688 0 14.6875 -0.257812 14.6875 -0.585938 L 14.6875 -5.757812 C 14.6875 -6.085938 14.429688 -6.347656 14.101562 -6.347656 L 8.25 -6.347656 C 7.921875 -6.347656 7.636719 -6.605469 7.636719 -6.933594 L 7.636719 -18.191406 C 7.636719 -18.519531 7.378906 -18.800781 7.050781 -18.800781 L 1.199219 -18.800781 C 0.871094 -18.800781 0.585938 -18.542969 0.585938 -18.214844 L 0.585938 -0.585938 C 0.585938 -0.257812 0.847656 0 1.175781 0 Z M 1.175781 0 "/></g></g></g><g fill="#ffffff" fill-opacity="1"><g transform="translate(110.536828, 91.078694)"><g><path d="M 1.199219 0 L 18.824219 0 C 19.15625 0 19.414062 -0.257812 19.414062 -0.585938 L 19.414062 -5.054688 C 19.414062 -5.382812 19.132812 -5.640625 18.800781 -5.640625 L 8.226562 -5.640625 C 7.898438 -5.640625 7.636719 -5.898438 7.636719 -6.226562 C 7.636719 -6.558594 7.898438 -6.816406 8.226562 -6.816406 L 17.886719 -6.816406 C 18.214844 -6.816406 18.472656 -7.074219 18.472656 -7.402344 L 18.472656 -11.398438 C 18.472656 -11.726562 18.191406 -11.988281 17.863281 -11.988281 L 8.226562 -11.988281 C 7.898438 -11.988281 7.636719 -12.246094 7.636719 -12.574219 C 7.636719 -12.902344 7.898438 -13.160156 8.226562 -13.160156 L 18.824219 -13.160156 C 19.15625 -13.160156 19.414062 -13.421875 19.414062 -13.75 L 19.414062 -18.214844 C 19.414062 -18.542969 19.15625 -18.800781 18.824219 -18.800781 L 1.175781 -18.800781 C 0.847656 -18.800781 0.585938 -18.542969 0.585938 -18.214844 L 0.585938 -0.585938 C 0.585938 -0.257812 0.871094 0 1.199219 0 Z M 1.199219 0 "/></g></g></g><g fill="#ffffff" fill-opacity="1"><g transform="translate(130.529896, 91.078694)"><g><path d="M 1.175781 0 L 7.050781 0 C 7.378906 0 7.636719 -0.28125 7.636719 -0.609375 L 7.636719 -6.109375 C 7.636719 -6.441406 7.898438 -6.699219 8.226562 -6.699219 L 11.75 -6.699219 C 12.082031 -6.699219 12.339844 -6.441406 12.339844 -6.109375 L 12.339844 -0.585938 C 12.339844 -0.257812 12.597656 0 12.925781 0 L 18.800781 0 C 19.132812 0 19.390625 -0.28125 19.390625 -0.609375 L 19.390625 -6.417969 C 19.390625 -7.804688 18.378906 -8.8125 16.992188 -8.8125 L 16.78125 -8.8125 C 16.453125 -8.8125 16.195312 -9.070312 16.195312 -9.402344 C 16.195312 -9.730469 16.453125 -9.988281 16.78125 -9.988281 L 16.992188 -9.988281 C 18.378906 -9.988281 19.390625 -11 19.390625 -12.386719 L 19.390625 -14.972656 C 19.390625 -17.179688 17.769531 -18.800781 15.558594 -18.800781 L 1.175781 -18.800781 C 0.847656 -18.800781 0.585938 -18.542969 0.585938 -18.214844 L 0.585938 -0.585938 C 0.585938 -0.257812 0.847656 0 1.175781 0 Z M 8.226562 -12.105469 C 7.898438 -12.105469 7.636719 -12.363281 7.636719 -12.691406 C 7.636719 -13.019531 7.898438 -13.277344 8.226562 -13.277344 L 11.75 -13.277344 C 12.082031 -13.277344 12.339844 -13.019531 12.339844 -12.691406 C 12.339844 -12.363281 12.082031 -12.105469 11.75 -12.105469 Z M 8.226562 -12.105469 "/></g></g></g></svg>